<svg xmlns="http://www.w3.org/2000/svg" width="32" height="32" viewBox="0 0 32 32"><path d="M0 5.71c.07-.3.13-.61.22-.9.5-1.59 1.96-2.73 3.63-2.75 2.63-.03 5.27-.01 7.9-.01.06 0 .12.01.21.03v3.94H4.05v21.92h21.94v-7.91h3.98V27.6c0 2.45-1.16 3.87-3.55 4.35-.04 0-.08.04-.13.06H3.74c-.07-.02-.14-.06-.22-.07-1.9-.33-3.12-1.52-3.44-3.41-.02-.09-.05-.18-.08-.26V5.71Z"/><path d="M32 13.94c-.28.02-.55.06-.83.07H28V6.94L15.52 19.42l-2.89-2.89 12.5-12.5h-7.15V1.48c0-.49.05-.99.07-1.48h13.94v13.94Z"/></svg>