<svg xmlns="http://www.w3.org/2000/svg" width="561.02" height="78.37" viewBox="0 0 561.02 78.37"><path d="M534.39 10.72v66.87H523.4V10.72h-26.2V.98h63.82v9.74h-26.63Zm-75.27 67.65c-8.53 0-15.77-1.71-21.71-5.14-5.94-3.43-10.65-8.15-14.11-14.16-3.46-6.02-5.2-12-5.2-19 0-11.64 3.96-20.99 11.89-28.18C437.92 3.9 447.7.11 459.33.11c8.02 0 16.93 2.1 26.74 6.29v11.76c-8.93-5.1-17.66-7.49-26.2-7.49s-16.01 2.59-21.79 8.11c-5.78 5.52-8.67 12.44-8.67 21.28 0 7.86 2.84 14.75 8.53 20.15 6.15 5.4 12.96 8.09 21.82 8.09s18.3-2.84 27.12-8.53V71.8c-8.02 4.38-17.04 6.56-27.78 6.56Zm-71.17-23.52h-32.6l-9.55 22.74h-11.24L367.38.66h7.69l34.26 76.93h-11.19l-10.18-22.74Zm-16.82-37.41L359.7 45.11h23.76l-12.33-27.67Zm-67.81 60.15H292.4V10.72h-26.92V.98h63.82v9.74h-25.98v66.87ZM191.78 18.65v58.94H181.5V1.09h8.86l51.51 59.34V1.09h10.39v76.5h-9.41l-51.08-58.94ZM122.5 78.36c-11.51 0-21.11-3.69-28.78-11.07-7.67-7.38-11.5-16.63-11.5-27.23 0-11.93 3.86-21.38 11.59-28.85C101.53 3.74 111.29 0 123.1 0s21.63 3.74 29.49 11.21c7.85 7.47 11.78 16.84 11.78 28.11s-3.96 20.59-11.89 27.97c-7.92 7.38-17.92 11.07-29.97 11.07Zm22.05-59.69c-5.7-5.52-12.7-8.28-21.01-8.28-8.74 0-15.71 2.73-21.55 8.2-5.63 5.47-8.44 12.45-8.44 21.47 0 7.72 2.82 14.57 8.47 20.04 6.27 6.28 12.71 8.2 21.2 8.2s15.63-2.47 21.34-8.37c5.7-5.58 8.55-12.52 8.55-20.84s-2.85-14.9-8.55-20.43ZM41.02 78.37c-8.53 0-15.77-1.71-21.71-5.14-5.94-3.43-9.98-8.15-14.11-14.16C1.73 53.05 0 47.06 0 40.06c0-11.64 3.97-20.99 11.9-28.18C19.82 3.9 29.78.11 41.24.11c8.02 0 16.93 2.1 26.74 6.29v11.76c-8.93-5.1-17.66-7.49-26.2-7.49s-16.01 2.59-21.79 8.11c-5.78 5.52-8.67 12.44-8.67 21.28 0 7.86 2.84 14.75 8.53 20.15 5.69 5.4 12.96 8.09 22.6 8.09 8.48 0 17.52-2.84 26.34-8.53V71.8c-8.02 4.38-17.28 6.56-27.78 6.56Z" fill-rule="evenodd"/></svg>