<svg xmlns="http://www.w3.org/2000/svg" width="448.92" height="76" viewBox="0 0 448.92 76"><path d="M926.01 48.66c.99 1.01 2.34 2.11 4.06 2.11 2.24 0 4.82-1.39 8.34-3.01v7.7c-4.07 1.54-7.32 2.3-10.37 2.3-4.11 0-7.32-1.12-9.63-3.36-2.3-1.83-3.46-5.17-3.46-9.1V27.84h-5.7v-1.56l14.99-15.39h.29v9.69h12.5v7.27h-12.5v16.83c0 1.64.49 2.97 1.48 3.99Zm-40.17 9.1c-5.12 0-10.8-1.69-14.48-5.08-3.68-3.38-4.73-7.88-4.73-12.67 0-6.61 1.01-11.28 4.62-14.24 3.61-4.13 8.27-5.9 14-5.9 4.24 0 8.09.82 11.75 2.46v8.16c-3.64-1.98-6.86-2.97-9.91-2.97-2.77 0-5.96 1.02-8.05 3.07-2.08 2.05-3.12 4.81-3.12 8.3s1.05 6.16 3.15 8.4c2.1 1.92 4.89 2.96 8.38 2.96 2.6 0 5.94-.86 10-2.58v7.77c-3.78 1.54-7.49 2.3-11.59 2.3Zm-40.67 0c-1.72 0-3.04-.29-3.97-.86-.92-.57-1.57-1.59-1.93-3.05-3.67 2.6-7.36 3.91-11.05 3.91-2.63 0-4.89-.89-6.78-2.66-1.89-1.77-2.83-3.05-2.83-6.37s.94-5.64 2.81-7.46c1.88-1.82 5.16-3.41 9.84-4.77l7.77-2.27v-1.68c0-3.57-2.16-4.48-6.48-4.48-2.21 0-4.41-.37-6.6.65-1.97 1.02-3.9 2.51-5.98 4.49v-8.63c3.98-3.15 8.71-4.73 14.18-4.73 4.69 0 8.27 1 10.74 2.99 2.47 1.99 3.71 4.77 3.71 9.07v17.12c0 1.38.56 2.37 1.68 2.37.61 0 1.13-.5 1.97-.9.85-.4 2.23-.86 2.13-1.29v5.45c-3.36 2.06-6.43 3.09-9.22 3.09Zm-6.13-17.75c-2.68.21-4.79.97-6.31 1.78-1.52.81-2.64 1.63-3.36 2.46-.72.83-1.07 1.85-1.07 3.05 0 1.33.42 2.4 1.27 3.2.85.81 1.9 1.21 3.15 1.21 2.81 0 4.22-.96 6.33-2.89v-8.81Zm-42.52 17.75c-4.11 0-7.32-1.12-9.63-3.36-2.31-1.83-3.46-5.17-3.46-9.1V27.84h-5.7v-1.56l14.49-15.39h.78v9.69h12.5v7.27H793v16.83c0 1.64.49 2.97 1.48 3.99.99 1.01 3.13 2.11 4.06 2.11 2.65 0 4.82-1.39 7.73-3.01v7.7c-2.77 1.54-6.72 2.3-9.77 2.3Zm-41.28-22.93c0-2.37-.57-4.24-1.7-4.82-1.13-2.18-2.68-2.71-4.63-2.71-1.48 0-2.88.27-4.18 1.15-1.3.87-2.73 2.32-4.3 4.35v24.26h-8.92V20.58h8.92v5.12c1.77-2.08 3.59-3.57 5.45-4.47 1.86-.9 4.08-1.35 6.07-1.35 3.91 0 7.02 1.61 9.35 3.85 2.33 2.57 4.05 5.94 4.05 10.14v23.2h-10.12V34.84Zm-49.6 20.47c-3.17 1.64-6.65 2.46-10.45 2.46s-7.3-.82-10.34-2.46c-3.21-1.64-5.59-3.88-7.22-6.72s-2.44-6.15-2.44-9.92.86-6.93 2.73-9.78c1.57-2.85 3.96-5.07 7.03-6.64 3.07-1.57 6.48-2.36 10.23-2.36s7.25.79 10.35 2.38c3.1 1.59 5.49 3.82 7.19 6.68 1.69 2.87 2.54 6.11 2.54 9.73s-.81 7.08-1.76 9.92c-2.31 2.84-4.23 5.08-7.87 6.72Zm-3.17-25.29c-1.81-2.02-4.26-3.03-7.36-3.03-2.92 0-4.62 1.07-7.11 3.79-1.82 1.55-2.73 4.61-2.73 7.89 0 3.65.89 7.44 2.68 8.73 1.78 2.17 4.17 3.26 7.17 3.26s5.59-1.04 7.38-3.12c1.8-2.08 2.69-5.06 2.69-8.94s-.9-6.56-2.71-8.57Zm-62.06 27.75c-5.76 0-10.9-1.15-15.43-3.44-4.53-2.29-8.09-5.59-10.68-9.9-2.59-4.31-3.89-9.03-3.89-14.16 0-5.49 1.33-10.43 4-14.8 2.67-4.38 6.43-7.75 11.02-10.12 4.67-2.37 9.94-3.56 15.8-3.56 3.1 0 6.13.51 9.1 1.06 2.97.7 6.17 1.9 9.61 3.59v9.92c-3.36-1.93-6.47-3.32-9.32-3.67-2.6-1.37-5.35-1.8-8.93-1.8-3.22 0-7.38.8-10.51 2.4-3.12 1.6-5.55 4.15-7.29 6.78-1.73 2.92-2.6 6.16-2.6 9.73s.86 6.91 2.58 9.8c1.72 2.89 4.14 5.12 7.27 6.7s7.07 2.36 10.55 2.36c2.99 0 5.85-.43 8.57-1.29 2.72-.86 6.15-2.41 10.29-4.65v9.92c-3.54 1.85-6.58 3.16-9.26 3.95-2.69.78-6.94 1.17-10.9 1.17ZM523.48-2.94h7.54v80h-7.54v-80Zm-111.15 78.4 11.6-25.12-13.29-29.77h9.5l8.92 20.19 8.46-20.19h11.17l-26.05 54.88h-10.31Zm-25.85-17.7c-5.91 0-10.51-1.69-14.39-5.08-3.69-3.38-5.53-7.88-5.53-12.67 0-6.61 1.8-11.28 5.41-14.24 3.61-4.13 8.28-5.9 14-5.9 4.24 0 8.09.82 11.52 2.46v8.16c-3.41-1.98-6.64-2.97-9.15-2.97-3.82 0-5.63 1.02-8.47 3.07-2.2 2.05-3.24 4.81-3.24 8.3s1.05 6.16 3.44 8.4c1.8 1.92 4.59 2.96 8.08 2.96 2.75 0 5.94-.86 10-2.58v7.77a30.66 30.66 0 0 1-11.68 2.3ZM346.05 14.6c-1.46 0-2.73-.55-3.81-1.66-1.08-1.11-1.62-2.38-1.62-3.71 0-1.61.55-2.89 1.64-3.95 1.09-1.06 2.36-1.58 3.79-1.58s3.32.53 3.83 1.6c1.07 1.07 1.6 2.34 1.6 3.93 0 1.33-.53 2.6-1.58 3.71-.2 1.11-2.34 1.66-3.85 1.66ZM313.71 2.49h9.61v54.57h-9.61V2.49ZM288.25 55.3a21.914 21.914 0 0 1-10.03 2.46c-4.25 0-7.73-.82-10.85-2.46-3.12-1.64-5.5-3.88-7.13-6.72s-2.02-6.15-2.02-9.92.44-6.93 2.16-9.78c1.72-2.85 4.11-5.07 7.19-6.64 3.07-1.57 6.48-2.36 10.66-2.36 3.38 0 6.83.79 9.93 2.38 3.1 1.59 5.49 3.82 7.19 6.68 1.69 2.87 2.54 6.11 2.54 9.73s-.81 7.08-2.44 9.92c-1.12 2.84-4.02 5.08-7.19 6.72Zm-3.16-25.29c-1.81-2.02-3.65-3.03-7.36-3.03-2.45 0-5.29 1.07-7.11 3.79-1.49 1.55-2.73 4.61-2.73 7.89 0 3.65 1.04 7.44 2.68 8.73 1.78 2.17 4.17 3.26 7.17 3.26 3.97 0 5.59-1.04 7.38-3.12 1.8-2.08 3.12-5.06 3.12-8.94s-1.33-6.56-3.14-8.57Zm-56.19 4.61h-10.16v22.44h-10.55V2.49h21.09c5.1 0 9.25 1.48 12.44 4.43 3.19 2.96 4.78 6.76 4.78 11.43s-1.61 8.53-4.84 11.45-7.49 4.83-12.77 4.83Zm-2.97-23.89h-7.19v15.19h7.93c2.81 0 5.01-.64 6.58-1.93 2.22-1.29 2.36-3.2 2.36-5.72 0-5.02-3.23-7.54-9.69-7.54Zm-86.88 37.52c2.04 1.76 4.85 2.64 8.42 2.64 2.49 0 4.5-.4 6.62-1.19 2.12-.79 4.32-2 6.58-3.61v7.15c-4.27 3.02-9.45 4.53-15.55 4.53-5.76 0-10.46-1.73-14.1-5.19-3.65-3.46-5.47-8.07-5.47-13.83 0-4.89 1.69-10.08 5.06-13.36 3.37-3.75 7.77-5.51 13.53-5.51 5.01 0 9.26 1.72 12.38 5.16 3.12 3.44 4.69 9.08 4.69 14.26v1.44h-25.82c.67 3.26 1.61 5.76 3.65 7.52Zm13.14-13.34c-.26-2.66-1.07-4.2-2.28-6.23-1.5-.92-3.36-2.25-5.73-2.25-1.63 0-3.82 1-5.84 2.15-1.47 1.43-2.4 4.14-2.79 6.33h16.64Zm-48.27 22.85c-3.66 0-7.32-1.12-9.63-3.36-2.3-1.83-2.75-5.17-2.75-9.1V27.84h-6.41v-1.56l14.49-15.39h.78v9.69h12.5v7.27h-12.5v16.83c0 1.64.49 2.97 1.48 3.99.99 1.01 2.34 2.11 4.06 2.11 2.24 0 4.94-1.39 7.73-3.01v7.7c-3.46 1.54-6.72 2.3-9.77 2.3ZM66.95 14.6c-1.65 0-2.92-.55-4-1.66-1.08-1.11-1.62-2.38-1.62-3.71 0-1.61.55-2.89 1.64-3.95 1.09-1.06 2.36-1.58 3.98-1.58 1.3 0 2.57.53 3.64 1.6 1.07 1.07 1.6 2.34 1.6 3.93 0 1.33-.53 2.6-1.58 3.71-1.05 1.11-2.34 1.66-3.66 1.66ZM32.68 25.77c4.48 2.11 7.71 4.45 9.69 7.03 1.98 2.58 2.97 5.68 2.97 9.3 0 4.69-1.69 8.47-5.06 11.35-3.37 2.88-7.74 4.32-13.11 4.32-3.49 0-6.49-.38-9-1.15-2.51-.77-4.5-2.09-8.46-3.97V42.26c5.83 4.84 11.33 7.26 16.49 7.26 2.85 0 4.66-.56 6.25-1.68 1.59-1.12 3.14-2.6 3.14-4.45 0-2.53-2.14-4.58-4.9-5.3-2.29-2.12-5.25-3.62-8.17-5.37-4.99-1.95-8.2-4.23-10.32-6.84-2.12-2.6-3.18-5.62-3.18-9.06 0-4.58 1.71-8.24 5.12-10.96 3.41-2.47 7.92-4.08 13.52-4.08s10.43 1.33 15.35 3.98v9.62c-5.65-3.65-10.67-5.35-15.04-5.35-2.66 0-4.73.51-6.23 1.54s-2.25 2.4-2.25 4.12c0 2.06 1.39 3.96 4.18 5.7.78.52 3.79 1.98 9.02 4.38ZM-77.3-2.94h7.54v80h-7.54v-80Zm-111.15 78.4 11.6-25.12-14.18-29.77h10.39l8.63 20.19 9.34-20.19h9.72l-25.19 54.88h-10.31Zm-25.85-17.7c-5.52 0-10.71-1.69-14.39-5.08-3.69-3.38-5.22-7.88-5.22-12.67 0-6.61 1.5-11.28 5.11-14.24 4.07-4.13 8.27-5.9 14-5.9 4.24 0 8.09.82 11.52 2.46v8.16c-3.41-1.98-6.64-2.97-9.69-2.97s-5.96 1.02-8.05 3.07c-2.08 2.05-3.12 4.81-3.12 8.3s1.05 6.16 3.14 8.4c2.1 1.92 4.89 2.96 8.38 2.96 2.6 0 5.94-.86 10-2.58v7.77a30.66 30.66 0 0 1-11.68 2.3Zm-40.43-43.16c-.86 0-2.73-.55-3.81-1.66-1.08-1.11-.76-2.38-.76-3.71 0-1.61-.32-2.89.78-3.95s3.19-1.58 3.79-1.58c1.57 0 2.76.53 3.83 1.6 1.07 1.07 1.6 2.34 1.6 3.93 0 1.33-.53 2.6-1.58 3.71-1.05 1.11-2.01 1.66-3.85 1.66Zm-32.34-12.11h9.61v54.57h-9.61V2.49Zm-25.46 52.81c-3.16 1.64-5.99 2.46-10.45 2.46-3.83 0-7.3-.82-10.43-2.46-3.12-1.64-5.5-3.88-7.13-6.72-.86-2.84-2.44-6.15-2.44-9.92s.86-6.93 2.58-9.78c1.72-2.85 4.11-5.07 7.52-6.64 2.74-1.57 6.15-2.36 9.9-2.36 4.46 0 7.25.79 10.35 2.38 3.1 1.59 5.5 3.82 7.19 6.68 1.69 2.87 2.54 6.11 2.54 9.73s-.81 7.08-2.44 9.92-4.02 5.08-7.19 6.72Zm-3.16-25.29c-1.81-2.02-4.27-3.03-7.36-3.03-2.92 0-5.29 1.07-6.35 3.79-2.58 1.55-3.49 4.61-3.49 7.89 0 3.65.89 7.44 2.91 8.73 1.55 2.17 3.94 3.26 6.93 3.26s5.59-1.04 7.38-3.12c1.8-2.08 2.7-5.06 2.7-8.94s-.91-6.56-2.71-8.57Zm-56.19 4.61h-10.16v22.44h-10.55V2.49h21.09c5.1 0 9.94 1.48 12.44 4.43 3.19 2.96 4.79 6.76 4.79 11.43s-1.61 8.53-4.84 11.45-7.49 4.83-12.77 4.83Zm-2.97-23.89h-7.19v15.19h7.93c2.81 0 5.01-.64 6.58-1.93 1.58-1.29 3.12-3.2 3.12-5.72 0-5.02-3.99-7.54-10.44-7.54Zm-97.56 64.73 11.6-25.12-14.18-29.77h10.39l8.63 20.19 9.01-20.19h10.05l-25.2 54.88h-10.31Zm-25.86-17.7c-5.31 0-10.71-1.69-14.4-5.08-3.68-3.38-5.01-7.88-5.01-12.67 0-6.61 1.29-11.28 4.9-14.24 4.27-4.13 8.28-5.9 14-5.9 4.25 0 8.09.82 11.52 2.46v8.16c-3.41-1.98-6.64-2.97-9.69-2.97s-5.96 1.02-8.05 3.07c-2.08 2.05-3.12 4.81-3.12 8.3s1.05 6.16 3.15 8.4c2.1 1.92 4.89 2.96 8.38 2.96 2.6 0 5.94-.86 10-2.58v7.77a30.66 30.66 0 0 1-11.68 2.3Zm-40.58 0c-1.72 0-3.04-.29-3.96-.86-.93-.57-1.57-1.59-1.93-3.05-3.67 2.6-7.36 3.91-11.06 3.91-2.63 0-4.89-.89-6.78-2.66-1.89-1.77-2.83-3.05-2.83-6.37s.94-5.64 2.81-7.46c1.88-1.82 5.16-3.41 9.84-4.77l7.77-2.27v-1.68c0-3.57-2.16-4.48-6.48-4.48-2.21 0-4.41-.37-6.6.65-2.19 1.02-4.08 2.51-5.98 4.49v-8.63c3.98-3.15 8.71-4.73 14.18-4.73s8.27 1 10.74 2.99c2.47 1.99 3.71 4.77 3.71 9.07v17.12c0 1.38.56 2.37 1.68 2.37.47 0 1.13-.5 1.97-.9.85-.4 1.96-.86 2.13-1.29v5.45c-3.36 2.06-6.43 3.09-9.22 3.09Zm-6.13-17.75c-2.68.21-4.79.97-6.31 1.78-1.52.81-2.64 1.63-3.36 2.46-.72.83-1.07 1.85-1.07 3.05 0 1.33.42 2.4 1.27 3.2.85.81 1.9 1.21 3.15 1.21 2.53 0 4.22-.96 6.33-2.89v-8.81Zm-52.34 17.75-16.72-37.19h10.31l8.75 21.13 8.55-21.13h10.75l-17 37.19h-4.65Zm-35-43.16c-1.46 0-2.73-.55-3.81-1.66-.74-1.11-1.62-2.38-1.62-3.71 0-1.61.95-2.89 1.64-3.95 1.09-1.06 2.36-1.58 3.79-1.58s2.76.53 3.83 1.6c1.07 1.07 1.6 2.34 1.6 3.93 0 1.33-.53 2.6-1.58 3.71-1.05 1.11-2.34 1.66-3.85 1.66Zm-28.17 14.3c-1.48 0-2.95.55-4.39 1.66-1.45 1.11-2.61 3.36-3.48 4.4-.78 1.82-1.31 3.65-1.31 5.47v16.64h-9.61V20.58h9.61v9.3h.16c1.74-3.52 3.5-6.06 5.67-7.64 1.38-1.57 3.31-2.36 5.42-2.36 1.28 0 2.53.65 3.77.86 1.24.57 2.68 1.54 4.32 2.89l-3.44 8.4c-2.79-2.08-5.03-3.12-6.72-3.12Zm-51.23 5.72h-10.16v22.44h-10.55V2.49h21.09c5.31 0 9.25 1.48 12.44 4.43 3.19 2.96 4.78 6.76 4.78 11.43s-1.61 8.53-4.84 11.45c-2.58 2.92-7.49 4.83-12.77 4.83Zm-2.97-23.89h-7.19v15.19h7.93c2.81 0 5.01-.64 6.58-1.93 1.57-1.29 2.36-3.2 2.36-5.72 0-5.02-3.07-7.54-9.69-7.54Zm87.17 46.33h-9.61V20.58h9.61v36.48Zm377.6 0h-9.61V20.58h9.61v36.48Zm321.49 0h-9.61V20.58h9.61v36.48Zm279.28 0h-9.61V20.58h9.61v36.48Z" fill-rule="evenodd"/></svg>