<svg xmlns="http://www.w3.org/2000/svg" width="291.59" height="68" viewBox="0 0 291.59 68"><path d="M1398.77 65.22h-9.02l10.15-21.98-12.41-26.05h9.09l7.55 17.16 7.66-17.16h9.02l-22.05 48.02Zm-29.56-35.55c0-1.82-.5-3.71-1.49-4.92s-2.34-1.81-4.05-1.81c-1.3 0-2.52.38-2.95 1.15-1.85.76-3.1 2.03-4.47 3.81v21.23h-8.41V17.2h8.41v4.48c1.55-1.82 3.14-3.13 5.55-3.91.85-.79 2.62-1.09 4.53-1.09 3.42 0 6.15 1.03 8.19 3.28 2.04 2.24 3.06 5.2 3.06 8.87v20.3h-8.37V29.67Zm-40.72 20.06c-2 0-3.16-.25-3.96-.75-.81-.5-1.37-1.18-1.69-2.67-3.21 2.51-6.44 3.42-9.67 3.42-2.3 0-4.28-.78-5.93-2.32-1.65-1.55-2.48-3.41-2.48-5.57 0-2.76.82-4.93 2.46-6.53 1.64-1.6 4.51-2.99 8.61-4.17l6.8-1.98v-1.47c0-3.12-1.89-4.68-5.54-4.68-1.37 0-4 .44-5.91 1.33-1.91.89-3.66 2.2-4.34 3.93v-7.55c2.59-2.76 6.73-4.05 11.52-4.05 4.1 0 7.23.78 9.4 2.52 2.16 1.74 3.81 4.18 3.81 7.3v15.62c0 1.21-.08 1.81.9 1.81.41 0 .98-.18 1.73-.53.74-.35 1.36-.15 1.86-1.21v4.85c-2.94 1.8-5.63 2.7-7.57 2.7Zm-5.86-16.24c-2.35.8-4.19 1.55-5.52 2.26-1.33.71-2.31 1.42-2.94 2.15-.63 1.34-.94 1.62-.94 3.16 0 .67.37 1.6 1.11 2.31.74.71 2.18 1.06 2.75 1.06 1.84 0 3.69-.63 5.54-2.53v-8.41Zm-37.23 14.53c-1.99 1-5.15 1.71-8.2 1.71-2.48 0-4.98-.63-7.48-1.88v17.36h-8.41V17.2h8.34v2.05c2.53-1.78 5.23-2.58 8.1-2.58 4.56 0 8.56 1.44 11.02 4.49 2.79 3.05 4.33 7.03 4.33 11.93 0 3.21-.8 6.08-1.66 8.61-1.76 2.53-3.62 4.5-6.04 6.33Zm-3.2-22.32c-1.42-1.84-3.45-2.77-6.07-2.77-.98 0-1.92.17-2.84.5-.91.33-2.11 1.03-3.59 2.1V41.7c2.1 1.21 4.05 1.81 5.88 1.81 2.64 0 4.76-.94 6.45-2.84 1.51-1.89 2.3-4.33 2.3-7.31 0-3.26-.71-5.81-2.14-7.66Zm-44.51 4.38c0-2.21-.47-3.95-1.42-5.23-.95-.68-2.12-1.91-4.12-1.91-2.58 0-5.05 1.83-7.42 4.96v21.23h-8.37V29.95c0-2.19-.5-3.9-1.5-5.14-1-1.24-2.35-1.86-4.03-1.86-1.37 0-2.62.39-3.76 1.18-1.14.79-2.36 2.05-3.66 3.78v21.23h-7.79V17.2h7.79v4.48c1.92-1.73 3.08-2.2 4.65-3.85 1.57-.83 3.38-1.16 5.43-1.16 2.65 0 4.54.49 6.24 1.64 1.7 1.15 2.97 2.69 3.81 4.63 1.8-2.21 3.59-3.82 5.38-4.84 1.79-1.01 3.75-1.43 5.9-1.43 3.37 0 6.1 1.01 8.68 3.21 1.56 2.2 2.6 5.13 2.6 8.8v20.44h-8.41V30.08Zm-64.66 17.6c-2.87 1.34-5.91 2.06-9.24 2.06s-6.39-.72-9.13-2.06c-2.73-1.53-4.81-3.49-6.24-5.98-.79-2.48-2.14-5.38-2.14-8.68s.75-6.07 2.26-8.56 3.6-4.43 6.29-5.11c2.69-2.08 5.67-2.68 8.96-2.68s6.35.61 9.06 2.85c2.71.54 4.81 2.48 6.29 4.99 1.48 2.51 2.22 5.34 2.22 8.51s-.71 6.2-2.14 8.68c-1.42 2.48-3.52 4.44-6.19 5.98Zm-2.87-22.23c-1.58-1.76-3.73-2.65-6.44-2.65-2.55 0-4.63.93-6.22 3.11-1.59 1.56-2.39 4.03-2.39 7.11s.78 5.74 2.34 8.45c2.26 1.09 3.65 2.04 6.27 2.04s4.89-.61 6.46-2.73c1.57-1.82 2.36-4.43 2.36-7.83s-.79-5.74-2.38-7.5Zm-54.34 24.29c-5.04 0-9.54-1-13.5-3.01-3.96-2.01-7.08-4.89-8.99-8.67-2.63-3.77-3.76-7.9-3.76-12.39 0-4.81 1.17-9.13 3.5-12.95 2.34-3.83 5.55-6.78 9.64-8.85 4.09-2.07 8.7-3.11 13.82-3.11 2.71 0 5.37.31 7.96.92 2.6.62 5.4 1.66 8.41 3.14v8.69c-2.59-1.69-5.66-2.64-8.15-3.66-2.49-.75-5.1-1.13-7.66-1.13-3.55 0-6.61.7-9.35 2.1-1.94 1.4-4.86 3.38-6.37 5.93-1.52 2.55-2.27 5.39-2.27 8.51s.75 6.05 2.26 8.58c1.5 2.53 4.11 4.48 6.36 5.86 2.73 1.38 5.81 2.07 9.38 2.07 2.47 0 4.97-.38 7.35-.47 2.38-1.41 5.38-2.76 9.01-4.13v8.09c-3.1 1.62-5.95 2.77-8.55 3.45-2.6.68-5.63 1.03-9.09 1.03Zm-125.07 0c-3.6 0-6.41-.98-8.43-2.94-2.02-1.96-3.02-4.61-3.02-7.96V23.56h-4.99v-1.37l13.21-13.47h.15v8.48h10.94v6.36h-10.94v14.73c0 1.44.43 2.6 1.67 3.49.5 1.7 2.51 1.33 3.19 1.33 1.96 0 4.22-.71 6.77-2.12v6.73c-3.03 1.35-5.88 2.02-8.55 2.02Zm-32.54-37.77c-.68 0-2.39-.48-3.33-1.45-.45-.97-1.42-2.08-1.42-3.33 0-1.32.57-2.44 1.44-3.37.96-.92 2.32-1.38 3.32-1.38 1.3 0 2.42.47 3.35 1.4.94.94 1.71 2.05 1.71 3.35s-.77 2.36-1.69 3.33c-.92.97-2.05 1.45-3.37 1.45Zm-28.15 32.81c-2.15 3.3-6.31 4.96-9.84 4.96s-6.18-.67-8.15-3.35c-2.22-2.23-3.27-5.15-3.27-8.16V17.2h8.37v19.76c0 2.07.52 3.95 1.55 4.73 1.04 1.08 2.41 1.62 4.12 1.62 1.41 0 2.77-.43 4.07-1.3 1.3-.87 2.35-2.08 3.15-3.66V17.2h8.41v31.92h-8.41v-4.34Zm-41.44-20.3c-1.3 0-2.58.48-3.84 1.45-1.27.97-2.28 2.25-3.04 3.85-.43 1.59-1.15 3.19-1.15 4.78v14.56h-8.41V17.2h8.41v8.13h.14c1.53-3.08 3.06-5.3 4.61-5.98 1.55-2.08 3.25-2.68 5.09-2.68 1.12 0 2.22.16 3.3.66 1.08.5 2.34 1.35 3.78 2.53l-3.01 7.35c-2.44-1.82-4.4-2.73-5.88-2.73Zm-40.39 25.26c-5.17 0-9.37-1.48-12.59-4.44-3.22-2.96-4.84-6.89-4.84-11.79s1.58-9.17 4.73-12.27c3.16-3.1 7.24-4.56 12.25-4.56 3.71 0 7.07.63 10.08 2.06v7.14c-2.99-1.73-5.81-2.6-8.48-2.6-2.87 0-5.22.89-7.04 2.68s-2.73 4.21-2.73 7.26.92 5.79 2.75 7.21c1.83 1.82 4.28 2.73 7.33 2.73 2.69 0 5.2-.75 8.75-2.26v6.8c-3.3 1.35-6.71 2.02-10.22 2.02Zm-49.04-8.32c2.23 1.54 4.24 2.31 7.36 2.31 2.01 0 3.94-.35 5.79-1.04 1.86-.69 3.78-1.75 5.76-3.16v6.26c-3.74 2.64-8.27 3.97-13.6 3.97-5.04 0-9.15-1.51-12.34-4.55-2.78-3.03-4.79-7.06-4.79-12.1s1.47-8.82 4.43-11.89c2.95-3.08 6.8-4.52 11.53-4.52s8.41 1.41 11.14 4.42c2.73 3.01 4.1 7.17 4.1 12.48v1.26h-22.01c-.24 2.85.82 5.04 2.61 6.58Zm11.5-11.67c-.23-2.33-.93-3.88-2.12-5.45-1.18-1.31-2.81-1.97-4.89-1.97s-3.82.63-5.11 1.88-2.1 3.1-2.44 5.54h14.56Zm-46.02 14.36c-1.78-5.08-4.58-8.33-5.81-10.27-1.23-1.77-2.41-3.02-3.55-3.76-1.14-.74-2.45-1.11-3.93-1.11h-2.5v20.17h-10.07V1.37h17.71c3.97 0 7.62 1.63 10.72 3.73 2.55 2.57 3.97 5.72 3.97 9.71 0 2.71-.7 5.08-2.1 7.09-1.4 2.02-3.48 3.61-6.24 5.6 1.53-.02 2.88 1.38 4.07 2.51 1.18 1.41 2.65 3.79 4.41 7.14 2.92 5.79 5.08 9.77 6.49 11.96h-10.29c-.71-1.05-1.66-2.72-2.87-5.02Zm-5.06-34.03c-1.37-1.08-3.32-1.62-5.84-1.62h-4.9v13.3h5.03c2.41 0 4.31-.6 5.69-1.81 1.77-1.21 2.07-2.86 2.07-4.96s-.25-3.82-2.05-4.91ZM625.4 41.42c1.79 1.54 4.24 2.31 7.37 2.31 2 0 3.94-.35 5.79-1.04s3.78-1.75 5.76-3.16v6.26c-3.74 2.64-8.27 3.97-13.6 3.97-5.04 0-9.15-1.51-12.34-4.55-3.19-3.03-4.78-7.06-4.78-12.1s1.47-8.82 5.19-11.89c2.51-3.08 6.03-4.52 10.77-4.52s8.67 1.41 11.14 4.42c2.73 3.01 4.1 7.17 4.1 12.48v1.26h-22.59c.34 2.85 1.41 5.04 3.2 6.58Zm11.5-11.67c-.23-2.33-.62-3.88-2.12-5.45-1.18-1.31-2.49-1.97-4.89-1.97-2.12 0-3.82.63-5.11 1.88-1.29 1.25-2.1 3.1-2.44 5.54h14.56Zm-44.99 20c-5.17 0-9.37-1.48-12.6-4.44-3.22-2.96-4.84-6.89-4.84-11.79s1.58-9.17 4.73-12.27c3.16-3.1 7.24-4.56 12.25-4.56 3.71 0 7.08.63 10.08 2.06v7.14c-2.98-1.73-5.81-2.6-8.48-2.6-2.87 0-5.22.89-7.04 2.68s-2.73 4.21-2.73 7.26.92 5.79 2.75 7.21c1.83 1.82 4.28 2.73 7.33 2.73 2.28 0 5.2-.75 8.75-2.26v6.8c-3.3 1.35-6.71 2.02-10.22 2.02Zm-35.43-37.77c-1.28 0-2.39-.48-3.33-1.45-.95-.97-1.42-2.08-1.42-3.33 0-1.32.48-2.44 1.44-3.37.96-.92 2.06-1.38 3.32-1.38s2.42.47 3.35 1.4c.93.94 1.4 2.05 1.4 3.35s-.46 2.36-1.38 3.33c-.92.97-2.05 1.45-3.37 1.45Zm-34.21 37.77-14.93-32.54h9.02l8.41 18.49 6.73-18.49h8.96l-14.42 32.54h-3.76Zm-32.9-25.26c-1.3 0-2.58.48-3.85 1.45-1.26.97-2.28 2.25-3.04 3.85-.76 1.59-1.14 3.19-1.14 4.78v14.56h-8.41V17.2h8.41v8.13h.14c2.13-3.08 3.07-5.3 4.61-5.98 1.55-2.08 3.25-2.68 5.09-2.68 1.12 0 2.22.16 3.3.66 1.08.5 2.34 1.35 3.78 2.53l-3.01 7.35c-2.44-1.82-4.4-2.73-5.88-2.73Zm-49.78 16.94c1.79 1.54 4.24 2.31 7.52 2.31 2.05 0 3.78-.35 5.64-1.04 1.86-.69 3.78-1.75 5.76-3.16v6.26c-3.74 2.64-8.27 3.97-13.6 3.97-5.04 0-9.15-1.51-12.34-4.55-3.19-3.03-4.78-7.06-4.78-12.1s1.47-8.82 4.43-11.89c2.95-3.08 7.38-4.52 11.54-4.52 4.69 0 8.41 1.41 11.14 4.42 2.73 3.01 4.54 7.17 4.54 12.48v1.26h-23.03c.34 2.85 1.41 5.04 3.2 6.58Zm11.5-11.67c-.23-2.33-.93-3.88-1.81-5.45-1.49-1.31-3.12-1.97-5.19-1.97-1.88 0-3.82.63-4.79 1.88-1.61 1.25-2.43 3.1-2.77 5.54h14.56Zm-47.25-8c3.92 2 6.74 4.51 8.48 6.15 1.73 2.26 2.6 4.97 2.6 8.14 0 4.1-1.48 7.41-4.43 9.93-2.95 2.52-6.77 3.78-10.7 3.78-3.54 0-6.44-.34-8.64-1.01-1.51-.67-4.67-1.83-7.4-3.47v-9.09c5.1 4.24 9.91 6.36 14.42 6.36 2.26 0 4.08-.49 5.47-1.47 2.19-.98 2.09-2.28 2.09-3.9 0-2.21-1.21-4.01-3.62-5.4-2.01-.26-4.59-2.4-7.76-3.93-3.76-1.71-6.57-3.7-8.42-5.98-1.86-2.28-2.79-4.92-2.79-7.93 0-4.01 1.49-7.21 4.48-9.59 2.98-2.38 6.93-3.57 11.83-3.57s9.13 1.16 13.43 3.49v8.18c-4.95-2.98-9.33-4.48-13.16-4.48-2.33 0-4.14.45-5.45 1.35-.72.9-1.97 2.1-1.97 3.61 0 1.8 1.22 3.46 4.55 4.99-.21.46 2.42 2.41 7 3.83ZM272.19 41.43c2.18 1.54 4.24 2.31 7.37 2.31 2.01 0 3.94-.35 5.79-1.04 1.86-.69 3.78-1.75 5.76-3.16v6.26c-3.74 2.64-8.27 3.97-13.6 3.97-5.04 0-9.15-1.51-12.34-4.55-2.83-3.03-4.78-7.06-4.78-12.1s1.47-8.82 4.43-11.89c2.95-3.08 6.79-4.52 11.53-4.52s8.41 1.41 11.14 4.42c2.73 3.01 4.1 7.17 4.1 12.48v1.26h-22.06c-.19 2.85.88 5.04 2.66 6.58Zm11.5-11.67c-.23-2.33-.93-3.88-2.12-5.45-1.18-1.31-2.82-1.97-4.89-1.97s-3.82.63-5.11 1.88c-1.29 1.25-2.1 3.1-2.44 5.54h14.56Zm-36.8-3.57c.35.92.53 1.92.53 2.99 0 2.55-.96 4.89-2.87 7.01-1.69 1.85-4.28 3.04-8.68 3.59-2.21.27-3.67.59-4.39.94-.72.35-1.08 1.07-1.08 1.62 0 .66.44 1.17 1.32 1.52.88.35 2.85.69 4.22 1.01 4.81 1.24 8.34 1.96 10.61 3.56 2.27 1.59 3.53 3.7 3.53 6.32 0 3.37-1.51 5.96-4.26 7.78-2.76 1.81-6.72 2.72-11.9 2.72-4.14 0-8.79-.85-11.69-1.8-2.89-2.47-4.34-3.99-4.34-7.63 0-4.06 2.79-6.86 8.37-8.41-2.42-1.05-3.62-2.43-3.62-4.13 0-2.23 1.82-3.77 5.47-4.11v-.64c-2.48-.68-4.46-1.75-5.93-3.66-1.47-1.75-1.86-3.81-1.86-6.15 0-3.44.96-6.22 3.55-8.32 2.6-2.11 5.99-3.16 10.18-3.16h16.44v5.95h-4.64c.06 1.09.68 2.1 1.04 3.02Zm-19.12 26.18c-1.37.81-2.05 1.83-2.05 3.06 0 2.85 2.85 4.27 8.55 4.27 2.46 0 4.39-.39 5.79-1.18 1.4-.79 2.1-1.82 2.1-3.09 0-1.41-.79-2.48-2.38-3.2-1.58-.72-3.61-1.08-6.72-1.08-2.17 0-3.93.4-5.3 1.21Zm10.68-27.82c-1.62-1.06-3.02-1.59-4.66-1.59s-3.12.58-4.29 2.57c-1.17.31-1.76 1.67-1.76 3.24 0 1.66.59 3.05 1.76 4.15 1.17 1.11 2.6 1.66 4.29 1.66s3.45-.57 4.27-1.73c1.12-1.15 1.67-2.6 1.67-4.36 0-1.57-.58-2.74-1.28-3.95Zm-36.71 25.21c-1.5 0-2.66-.25-3.47-.75s-1.37-1.18-1.69-2.67c-3.21 2.51-6.44 3.42-9.67 3.42-2.3 0-4.28-.78-5.59-2.32-1.99-1.55-2.82-3.41-2.82-5.57 0-2.76.82-4.93 2.65-6.53 1.45-1.6 4.32-2.99 8.42-4.17l6.8-1.98v-1.47c0-3.12-1.89-4.68-5.67-4.68-1.94 0-3.86.44-5.78 1.33-1.27.89-3.66 2.2-5.23 3.93v-7.55c3.49-2.76 7.62-4.05 12.41-4.05 4.1 0 7.24.78 9.4 2.52s3.25 4.18 3.25 7.3v15.62c0 1.21.49 1.81 1.47 1.81.41 0 .99-.18 2.32-.53.15-.35.77-.15 1.27-1.21v4.85c-2.94 1.8-5.63 2.7-8.07 2.7Zm-5.37-16.24c-1.55.8-4.19 1.55-5.52 2.26-1.33.71-2.31 1.42-2.94 2.15-.63 1.34-.62 1.62-.62 3.16 0 .67.05 1.6.79 2.31s1.66 1.06 2.75 1.06c1.85 0 3.69-.63 5.54-2.53v-8.41Zm-39.74-4.41c3.64 1.85 6.2 4.18 7.67 5.11 1.47 1.56 2.2 4.02 2.2 5.62 0 3.08-1.07 5.5-3.21 7.26-2.14 1.77-5.04 2.65-8.68 2.65-2.28 0-4.4-.25-6.37-.75-1.97-.5-3.61-1.1-4.9-1.81v-7.01c4.1 2.28 7.55 3.53 10.36 3.53 1.44 0 2.6-.36 3.49-.88.89-.51 1.33-.71 1.33-2.03 0-.5-.16-.96.35-1.37-1.15-.41-1.63-.73-2.26-1.26-.47-.43-2.41-1.47-5.98-3.11-2.57-1.23-4.48-2.57-5.71-4.02-1.23-.95-1.85-3.16-1.85-5.14 0-2.82 1.1-5.08 3.32-6.77 2.21-1.69 5.11-2.44 8.72-2.44 1.75 0 3.41.11 4.96.51 1.55 1.19 3.19 1.03 5.2 1.9v6.73c-1.87-1.02-3.58-1.85-5.41-2.48-1.09-.63-3.45-.94-4.74-.94s-2.3.67-2.98.68c-.68.46-1.02 1.11-1.02 1.95 0 .48.28.96 1.65 1.44-.22.48 1.34 1.36 3.89 2.63Zm-35.16 0c3.17 1.85 5.73 4.18 7.2 5.11 1.47 1.56 2.2 4.02 2.2 5.62 0 3.08-1.07 5.5-3.21 7.26-2.14 1.77-5.04 2.65-8.35 2.65-2.61 0-4.74-.25-6.71-.75-1.97-.5-3.1-1.1-4.9-1.81v-7.01c4.1 2.28 7.55 3.53 10.36 3.53 1.43 0 2.6-.36 3.49-.88.89-.51 1.33-.71 1.33-2.03 0-.5-.16-.96-.48-1.37-.32-.41-.8-.73-1.26-1.26-.81-.43-2.8-1.47-5.81-3.11-2.92-1.23-4.82-2.57-6.05-4.02-.34-.95-1.85-3.16-1.85-5.14 0-2.82 1.1-5.08 3.32-6.77 3.1-1.69 5.12-2.44 8.72-2.44 1.75 0 3.41.11 4.96.51 1.74 1.19 3.19 1.03 4.92 1.9v6.73c-1.6-1.02-2.5-1.85-5.13-2.48-1.82-.63-3.45-.94-4.89-.94-1.21 0-2.15.67-2.84.68-.68.46-1.03 1.11-1.03 1.95 0 .48.29.96.86 1.44.57.48 2.13 1.36 5.16 2.63ZM75.55 41.43c1.79 1.54 4.24 2.31 7.37 2.31 2.01 0 3.94-.35 5.79-1.04s3.78-1.75 5.76-3.16v6.26c-3.74 2.64-8.27 3.97-13.6 3.97-5.04 0-9.15-1.51-12.34-4.55-3.19-3.03-4.79-7.06-4.79-12.1s1.48-8.82 4.43-11.89 7.02-4.52 11.54-4.52 8.41 1.41 11.14 4.42c2.73 3.01 4.99 7.17 4.99 12.48v1.26H72.36c.34 2.85 1.41 5.04 3.2 6.58Zm11.5-11.67c-.23-2.33-.94-3.88-2.12-5.45-1.18-1.31-2.81-1.97-4.89-1.97s-3.82.63-5.11 1.88c-1.29 1.25-2.1 3.1-2.44 5.54h14.56Zm-47.84-14h-.27L25.13 32.41h-1.3L10.75 15.76h-1v33.36H.52V1.37h8.3L24.51 20.2 40.2 1.37h8.24v47.75h-9.23V15.76Zm-142.47 13.33c3.65 1.85 6.8 4.18 7.67 5.11 1.47 1.56 2.21 4.02 2.21 5.62 0 3.08-1.07 5.5-3.21 7.26-2.14 1.77-5.04 2.65-8.68 2.65-2.28 0-4.4-.25-6.37-.75-1.97-.5-3.61-1.1-4.9-1.81v-7.01c4.1 2.28 8.1 3.53 10.36 3.53 1.44 0 2.6-.36 3.49-.88.89-.51 1.33-.71 1.33-2.03 0-.5-.16-.96-.48-1.37-.32-.41-.8-.73-1.43-1.26-.64-.43-2.63-1.47-5.98-3.11-2.57-1.23-4.48-2.57-5-4.02-1.94-.95-2.56-3.16-2.56-5.14 0-2.82 1.1-5.08 3.32-6.77 2.21-1.69 5.12-2.44 8.72-2.44 1.93 0 3.41.11 4.96.51 1.55 1.19 3.19 1.03 4.92 1.9v6.73c-1.6-1.02-3.31-1.85-4.98-2.48-1.97-.63-3.6-.94-5.03-.94-1.21 0-2.15.67-2.84.68-.68.46-1.02 1.11-1.02 1.95 0 .48.28.96.85 1.44s2.13 1.36 4.68 2.63Zm-40.91 20.65-8.61-19.52-8.61 19.52h-3.49l-14.36-32.54h8.75l7.42 18.86 7.55-18.86h5.62l7.33 18.86 7.42-18.86h8.75l-14.22 32.54h-3.55Zm-62.94-8.32c1.79 1.54 4.24 2.31 7.37 2.31 2 0 3.94-.35 5.79-1.04 1.86-.69 3.78-1.75 5.76-3.16v6.26c-3.74 2.64-8.27 3.97-13.6 3.97-5.04 0-9.15-1.51-12.34-4.55-3.19-3.03-4.78-7.06-4.78-12.1s1.47-8.82 4.43-11.89c2.95-3.08 6.8-4.52 11.54-4.52s8.41 1.41 11.14 4.42c2.74 3.01 4.1 7.17 4.1 12.48v1.26h-22.59c.34 2.85 1.41 5.04 3.2 6.58Zm11.5-11.67c-.23-2.33-.93-3.88-2.12-5.45-1.18-1.31-2.81-1.97-4.89-1.97s-3.82.63-5.11 1.88c-.82 1.25-2.1 3.1-2.44 5.54h14.56Zm-75.09-14.49v33.86h-9.02V1.37h8.1l28.37 33.32V1.37h9.02v47.75h-7.93l-28.54-33.87Zm831.4 33.86h-8.41V17.2h8.41v31.92Zm401.73 0h-7.7V17.2h7.7v31.92Z" fill-rule="evenodd"/></svg>