<svg xmlns="http://www.w3.org/2000/svg" width="391.87" height="67.08" viewBox="0 0 391.87 67.08"><path d="M391.87 57.89v8.34h-38.02V.84h37.12v8.35h-27.75v19.97h26.81v8.39h-26.81v20.34h28.64Zm-76.66 9.19c-10.85 0-19.31-3.16-25.99-9.49-6.19-6.33-9.73-14.13-9.73-23.41 0-9.78 3.36-17.92 10.08-24.42 6.72-6.5 15.23-9.75 25.27-9.75 3.69 0 7.19.4 10.5 1.19 3.31.8 7.5 2.26 12.56 4.38v9.56c-7.81-4.53-15.56-6.15-23.25-6.15-7.16 0-13.19 1.79-18.09 6.66-4.91 4.88-7.36 10.86-7.36 17.95s2.45 13.52 7.36 18.23c4.91 4.72 11.87 7.08 18.94 7.08 3.75 0 8.46-.86 13.45-1.93l.89-.93V42.41h-12.61v-8.34h21.99v27.75c-8.06 4.01-16.06 5.25-24 5.25Zm-54.07-20.16H233.2l-8.18 19.91h-9.63L243.51.47h6.59l29.36 66.36h-9.6l-8.73-19.91Zm-14.23-32.06-9.99 23.72h20.36L246.9 14.86ZM190.27 26.9l7.16 4.24c7.99 4.77 11.98 10.84 11.98 19.01 0 4.46-1.76 8.72-5.27 12-3.52 3.28-8.09 4.92-13.71 4.92-6.47 0-12.36-1.99-17.18-5.97V49.19c4.57 6.41 10.43 9.62 17.08 9.62 2.94 0 5.53-.82 7.34-2.45 1.95-1.63 2.93-3.68 2.93-6.14 0-3.99-2.67-7.77-8.62-11.34l-7.12-4.33c-4.47-2.73-7.65-5.41-9.54-8.05-1.89-2.64-2.84-5.68-2.84-9.12 0-5.16 1.79-9.34 5.37-12.56 3.58-3.22 8.23-4.83 14.72-4.83 4.69 0 9.71 1.54 14.27 4.61v10.65c-4.72-4.54-9.8-6.81-15.23-6.81-3.06 0-5.58.71-7.55 2.12-1.97 1.42-2.95 3.23-2.95 5.44 0 1.96.72 3.8 2.18 5.51 1.67 1.71 3.78 3.51 7 5.39Zm-46.85 0 7.16 4.24c7.99 4.77 11.98 10.84 11.98 19.01 0 4.46-1.76 8.72-5.27 12-2.86 3.28-8.09 4.92-13.71 4.92-6.47 0-12.36-1.99-17.67-5.97V49.19c5.06 6.41 10.92 9.62 17.58 9.62 2.94 0 5.38-.82 7.34-2.45 2.61-1.63 3.38-3.68 3.38-6.14 0-3.99-3.33-7.77-9.07-11.34l-7.12-4.33c-4.47-2.73-7.65-5.41-9.54-8.05-1.89-2.64-2.84-5.68-2.84-9.12 0-5.16 1.79-9.34 5.37-12.56 3.58-3.22 8.23-4.83 13.94-4.83S155.43 1.53 160 4.6v10.65c-4.72-4.54-9.8-6.81-14.78-6.81-3.51 0-6.03.71-8 2.12-1.97 1.42-2.95 3.23-2.95 5.44 0 1.96.72 3.8 2.18 5.51 1.45 1.71 3.78 3.51 7 5.39ZM78.02.84h37.12v8.35H87.39v19.97h26.81v8.39H87.39v20.34h28.64v8.34H78.01V.84ZM51.61 15.37 31.48 40.68h-1.3L9.37 15.38v51.46H0v-66h8.87l21.76 26.9L52.26.84h8.77v65.99h-9.42V15.38Z" fill-rule="evenodd"/></svg>