<svg xmlns="http://www.w3.org/2000/svg" width="1008.55" height="449.25" viewBox="0 0 1008.55 449.25"><path d="m1001.81 107.41-80.5-92.68v92.68h-8.32V1.37h6.95l80.42 92.68V1.37h8.2v106.04h-6.75ZM873.38 70.75h-51.86l-16.71 36.66h-8.29L845.72.61h4.01l49.03 106.8h-8.6l-16.78-36.66ZM847.4 13.97l-22.77 49.95H871l-23.6-49.95Zm-91.45 264.79c-8.02 2.05-15.62 3.07-23.51 3.07-10.44 0-21.32-2.3-30.4-6.91-9.08-4.6-16.17-11.06-21.26-19.36-5.09-8.3-7.63-17.56-7.63-27.78s2.57-19.76 7.7-28.16c5.14-7.62 12.3-14.93 21.48-19.58s19.42-6.98 30.71-6.98c13.06 0 26.01 2.91 38.86 8.73v18.75c-12.85-6.53-25.51-9.79-37.95-9.79-7.36 0-14.62 1.54-20.65 4.63-6.02 3.09-10.69 7.53-14.01 13.32-3.32 5.79-4.97 12.26-4.97 19.39 0 10.83 3.61 19.55 10.82 26.15s16.71 10.8 28.5 10.8c3.24 0 6.34-1.17 9.3-1.73 2.96-.56 6.49-1.62 10.59-3.19v-17.61H736v-16.02h38.03v44.45c-5.21 2.92-11.47 5.76-18.08 7.81ZM696.7 108.78c-15.73 0-30.17-5.21-41.18-15.34-11.01-10.72-16.51-23.73-16.51-39.31s5.4-28.38 16.6-38.67C666.02 5.29 679.59.01 695.94.01c11.13 0 23.44 3.01 36.36 9.03v9.26c-12.55-6.94-24.6-10.7-37.57-10.7s-24.57 4.45-32.77 13.36c-9.61 8.91-14.06 20.07-14.06 33.48s4.4 24.56 13.21 33.44c8.8 8.88 20.77 13.76 35.9 13.76 10.93 0 20.62-2.62 29.07-6.97V66.05h-22.39v-6.18h30.67v39.96c-12.5 5.97-25.05 8.96-37.65 8.96Zm-50.37 65.65v106.04h-17.61l-63.38-75.23v75.23H545.3V174.43h17.99l63 74.01v-74.01h20.04ZM523.98 14.73v92.68h-8.2V1.37h6.95l80.42 92.68V1.37h8.2v106.04h-6.75l-80.62-92.68Zm-30.6 159.7h20.31v106.04h-20.31V174.43ZM481.89 1.37h8.2v106.04h-8.2V1.37Zm-50.14 279.1h-19.72v-90.03h-38.42v-16.02h95.8v16.02h-37.65v90.03Zm-7.13-173.06h-8.27V8.76h-39.78V1.37h87.83v7.39h-39.78v98.65Zm-56.24 0-16.77-36.66h-51.86l-16.71 36.66h-8.6L323.46.61h4.5l49.03 106.8h-8.6Zm-42.75-93.44-22.77 49.95h45.62l-22.85-49.95Zm-15.94 168.12v19.28c-6.53-3.74-12.56-6.45-18.1-8.12-5.54-1.67-11.32-2.5-16.64-2.5-8.24 0-15.05 1.56-21.12 4.67s-10.79 7.5-14.16 13.17c-3.37 5.67-5.05 11.97-5.05 18.9s1.67 13.44 5.01 19.05c3.34 5.75 8.05 9.96 14.12 13.02 6.07 3.06 12.91 5.48 21.2 5.48 5.12 0 10.67-1.73 15.96-3.4 5.54-1.67 11.96-4.68 20-9.03v19.28c-6.88 3.59-13.21 6.15-18.98 7.67-5.77 1.52-12.5 2.28-20.19 2.28-11.18 0-21.18-2.23-29.98-6.55-8.8-4.59-15.73-11-20.76-19.38-5.04-8.38-7.55-17.55-7.55-27.52 0-10.68 2.59-20.27 8.29-28.77 4.67-8.5 11.81-15.05 20.89-19.66 9.08-4.6 19.32-6.91 30.71-6.91 6.02 0 12.68.68 17.69 2.05 5.77 1.37 11.99 3.69 18.67 6.98ZM202.29 1.37h57.84v7.39h-49.64v41.87h48.35v6.91h-48.35v43.04h50.86v6.83h-59.06V1.37ZM191.7 107.41H182l-18.47-29.06c-6.17-9.72-10.98-15.78-14.42-17.98-3.44-2.61-8.47-3.81-15.1-3.81h-14.34v50.86h-8.2V1.37h27.18c11.39 0 20.09 2.47 26.11 7.4s9.03 11.6 9.03 20c0 12.25-6.73 20.85-20.19 25.81 3.49 1.67 8.2 7.06 14.12 16.17l23.99 36.66Zm-33.89-63.12c4.73-3.62 7.1-8.74 7.1-15.37s-2.41-11.61-7.21-15.26c-4.81-3.64-11.72-4.91-20.72-4.91h-17.31v40.97h17.61c9.53 0 15.8-1.81 20.53-5.43ZM56.48 108.78c-16.14 0-29.59-5.17-40.35-15.52C5.38 82.9 0 70.01 0 54.58s5.49-28.52 16.47-38.94C27.45 5.9 40.53 0 55.72 0c11.94 0 24.37 2.96 37.27 8.88v8.96C80.14 11.01 67.53 7.59 55.31 7.59c-13.28 0-24.29 4.48-33.15 13.43C13.3 29.98 8.88 41.45 8.88 54.57c0 13.96 4.45 24.72 13.99 33.47 8.28 8.75 19.64 13.57 33.45 13.57 11.54 0 24.11-4.06 37.73-11.3v8.5c-12.55 6.63-25.08 9.94-37.57 9.94Zm16.17 81.66H24.59v27.86h46v16.02h-46v30.14H73.7v16.02H4.1V174.44h68.54v16.02Zm-.76 167.42H27.7v27.4h44.18v16.17H27.7v46.46H7.52V341.85h64.36v16.02ZM93.1 174.43h25.81l29.22 35.9 28.77-35.9h25.5l-41.52 51.16 45.39 54.88h-25.96l-32.19-39.62-32.18 39.62H90.13l44.94-54.88-41.98-51.16Zm24.97 229.13c0 6.33.95 11.36 2.85 15.11 1.9 3.75 5 6.83 9.62 9.26 3.98 2.43 8.99 3.64 15.3 3.64 5.68 0 11.01-1.15 15.78-3.45 3.98-2.3 7.18-5.44 9.21-9.41 2.02-3.97 3.04-8.71 3.04-16.06v-60.8h20.49v63c0 14.27-4.28 25.24-12.83 32.91-8.55 7.67-20.65 11.5-35.69 11.5-10.41 0-18.93-1.75-26.14-5.24-7.21-3.49-12.72-8.54-16.39-15.14-3.91-6.6-5.81-14.36-5.81-23.27v-63.76h20.57v61.71Zm194.66-45.7h-37.65v90.03h-20.5v-90.03h-37.65v-16.02h95.8v16.02Zm40.21-77.39h-20.49V174.43h20.49v106.04Zm2.86 123.09c0 6.33.95 11.36 2.85 15.11 1.9 3.75 5 6.83 9.3 9.26 4.89 2.43 9.99 3.64 15.03 3.64 6.89 0 11.6-1.15 15.98-3.45 4.38-2.3 7.58-5.44 9.6-9.41 2.02-3.97 3.04-8.71 3.04-16.06v-60.8h20.49v63c0 14.27-4.28 25.24-12.13 32.91-9.26 7.67-21.35 11.5-36.99 11.5-9.82 0-18.33-1.75-25.54-5.24-6.85-3.49-12.71-8.54-16.51-15.14-3.79-6.6-5.26-14.36-5.26-23.27v-63.76h20.14v61.71Zm169.23-53.44c6.27 5.52 9.41 12.7 9.41 21.56 0 6.02-1.56 11.27-4.67 15.75s-7.73 8.01-13.85 10.59c3.39 1.82 6.4 4.3 9.03 7.44 2.63 3.14 5.9 8.43 9.79 15.86 6.85 13.16 11.28 21.71 14.42 26.57h-22.85c-1.57-2.33-3.7-6.05-6.38-11.16-5.87-11.28-10.17-18.89-12.9-22.81-2.73-3.92-5.36-6.05-7.89-8.35-2.53-1.64-5.44-2.47-8.73-2.47h-7.44v44.79h-20.5V341.85h38.18c9.97 0 18.09 2.76 24.37 8.27Zm-42.05 7.44v29.53h13.06c5.36 0 9.58-1.34 12.64-4.02 3.06-2.68 5.33-6.35 5.33-11.01 0-4.35-2.26-8.49-5.29-10.7-3.04-2.6-7.36-3.8-12.98-3.8h-12.75Zm155.94.3h-48.05v27.86h46v16.02h-46v30.14h49.11v16.02h-69.61V341.86h68.54v16.02Z" fill-rule="evenodd"/></svg>