<svg xmlns="http://www.w3.org/2000/svg" width="265" height="67.08" viewBox="0 0 265 67.08"><path d="M247.19 8.44c-3.06 0-5.58.71-7.55 2.12-1.97 1.42-2.95 3.23-2.95 5.44 0 1.96.73 3.8 2.18 5.51 2.22 1.71 3.78 3.51 7 5.39l7.16 4.24c7.99 4.77 11.98 10.84 11.98 19.01 0 4.46-1.61 8.72-5.27 12-3.52 3.28-8.09 4.92-13.71 4.92-6.47 0-12.36-1.99-17.67-5.97V49.19c5.06 6.41 11.27 9.62 17.58 9.62 2.94 0 6.08-.82 7.61-2.45 1.67-1.63 2.65-3.68 2.65-6.14 0-3.99-2.11-7.77-8.62-11.34l-7.12-4.33c-4.47-2.73-7.65-5.41-9.54-8.05-1.89-2.64-2.84-5.68-2.84-9.12 0-5.16 1.79-9.34 5.37-12.56 3.58-3.22 8.23-4.83 13.94-4.83s10.48 1.54 15.05 4.61v10.65c-4.72-4.54-9.8-6.81-15.23-6.81Zm-54.52 58.17-21.18-52.46-21.87 52.46h-2.01L121.21.84h9.45l18.05 45.14L166.87.84h8.86l18.25 45.14L211.85.84h9.35l-26.48 65.77h-2.06ZM77.55.84h37.12v8.35H86.92v19.97h26.81v8.39H86.92v20.34h28.64v8.34H77.54V.84ZM8.81 15.89v50.94H0V.84h7.59L51.75 51.7V.84h8.91v65.99H52.6L8.81 15.89Z" fill-rule="evenodd"/></svg>