<svg xmlns="http://www.w3.org/2000/svg" width="888.16" height="78.37" viewBox="0 0 888.16 78.37"><path d="M859.94 37.08v40.51h-11.21V37.08L820.51 1.09h13.2l20.45 26.34 20.72-26.34h13.28l-28.22 35.98Zm-75.6 41.29c-8.53 0-15.77-1.71-21.71-5.14-5.94-3.43-10.65-8.15-14.11-14.16-3.18-6.02-5.19-12-5.19-19 0-11.64 3.96-20.99 11.89-28.18C763.15 3.91 772.93.12 784.56.12c8.02 0 16.93 2.1 26.74 6.29v11.76c-8.93-5.1-17.66-7.49-25.46-7.49-9.49 0-16.14 2.59-22.53 8.11-5.78 5.52-8.67 12.44-8.67 21.28 0 7.86 2.84 14.75 8.53 20.15 5.69 5.4 12.96 8.09 21.82 8.09s18.3-2.84 28.01-8.53v12.03c-8.21 4.38-18.16 6.56-28.66 6.56ZM715.43 1.09h10.54v76.5h-10.54V1.09Zm-58.77 0h10.94v66.97H702v9.53h-45.34V1.09Zm-58.67 77.27c-11.51 0-21.1-3.69-28.77-11.07-7.67-7.38-11.5-16.63-11.5-27.23 0-11.93 3.86-21.38 11.59-28.85C577.03 3.74 586.8 0 598.6 0s21.63 3.74 29.83 11.21c7.51 7.47 11.43 16.84 11.43 28.11s-3.96 20.59-11.89 27.97c-7.53 7.38-17.81 11.07-29.97 11.07Zm22.05-59.69c-5.7-5.52-12.7-8.28-21.01-8.28-8.74 0-15.35 2.73-21.56 8.2-5.63 5.47-8.44 12.45-8.44 21.47 0 7.72 2.82 14.57 8.47 20.04 5.65 6.28 12.71 8.2 21.2 8.2s15.63-2.47 21.34-8.37c5.7-5.58 8.55-12.52 8.55-20.84s-2.85-14.9-8.55-20.43Zm-84.28 23.35c-3.86 2.42-9.41 2.32-15.76 2.32h-8.76v33.24h-11.1V.98h24.14c7.29 0 13.11 1.97 17.45 5.91 4.52 3.94 6.51 9.22 6.51 15.86 0 4.45-.42 8.39-3.34 12.55-2.22 2.69-5.27 5.18-9.13 6.73Zm-13.4-31.31h-11.12v23.9h11.78c4.45 0 7.88-.25 10.28-3.14 2.41-2.1 3.61-5.1 3.61-9 0-7.84-4.67-11.76-14.55-11.76Zm-96.19 66.87h-11.21v-40.5L386.73 1.09h13.2l20.45 26.34 21.41-26.34h12.59l-28.22 35.98v40.51Zm-75.6.78c-8.43 0-15.77-1.71-21.71-5.14-5.94-3.43-10.65-8.15-14.11-14.16-3.46-6.02-5.2-12-5.2-19 0-11.64 3.96-20.99 11.9-28.18C329.37 3.9 339.14.11 350.78.11c8.02 0 16.93 2.1 26.74 6.29v11.76c-8.93-5.1-17.66-7.49-26.2-7.49s-16.02 2.59-21.79 8.11c-5.78 5.52-8.67 12.44-8.67 21.28 0 7.86 2.84 14.75 8.53 20.15 6.18 5.4 12.96 8.09 21.82 8.09s18.3-2.84 27.12-8.53V71.8c-8.02 4.38-16.99 6.56-27.78 6.56ZM279.4 54.84h-32.59l-9.55 22.74h-11.24L258.82.66h7.69l34.26 76.93h-11.19L279.4 54.85Zm-16.82-37.41L251.15 45.1h23.76l-12.33-27.67ZM187.94 77.8 155 1.09h11.01l22.98 53.65 22.82-53.65h10.89l-32.3 76.73h-2.48ZM132.17 1.09h11.7v76.5h-11.7V1.09Zm-28.24 71.36c-.11-.18-.33-.49-.65-.51l-2.13-3.09-3.39-5.92-2.96-5.96c-2.96-3.14-5.03-5.63-6.91-7.19-1.88-2.15-3.58-3.49-5.09-4.31-1.51-.82-4.06-1.23-7.64-1.23h-2.85v33.35H61.37V1.09h19.14c7.73 0 13.86 1.91 18.4 5.74 4.54 3.83 6.81 9.01 6.81 15.53 0 4.45-1.11 8.3-3.34 11.54-2.22 3.25-5.41 6.52-9.57 7.27 2.44 1.6 4.83 3.79 7.16 6.56 2.33 3.07 5.61 7.6 9.84 14.49 2.66 5.18 4.79 7.6 6.4 9.79l4.05 5.57h-13.01l-3.33-5.13Zm-9.52-50.2c0-2.41-.64-4.58-1.91-6.53-1.28-1.95-3.07-3.33-4.6-4.13-3.11-.8-6.94-1.2-12.3-1.2h-3.28v24.36h4.16c5.54 0 9.34-.72 11.4-1.67 2.06-.95 3.66-2.38 4.81-4.29 1.15-1.91 1.72-4.09 1.72-6.53Zm-58.7 19.77c-3.86 2.42-9.41 2.32-16.09 2.32h-8.63v33.24H0V.98h24.23c7.29 0 13.11 1.97 17.44 5.91 4.34 3.94 6.51 9.22 6.51 15.86 0 4.45-.73 8.39-3.34 12.55-2.22 2.69-5.27 5.18-9.13 6.73Zm-13.4-31.3H10.99v23.9h11.98c4.45 0 7.88-.25 10.28-3.14 2.41-2.1 3.61-5.1 3.61-9 0-7.84-4.85-11.76-14.55-11.76Z" fill-rule="evenodd"/></svg>