<svg xmlns="http://www.w3.org/2000/svg" width="390.03" height="67.08" viewBox="0 0 390.03 67.08"><path d="M367.2 9.09v57.74h-9.42V9.09h-22.45V.75h54.7v8.34H367.2ZM314.12.84h9.38v65.99h-9.38V.84ZM294.34 55.8c-.75 1.7-2.4 3.23-3.96 4.57-5.19 4.47-11.97 6.7-20.34 6.7s-15.37-2.22-20.53-6.66c-1.56-1.38-2.88-2.91-3.96-4.62s-1.97-3.79-2.67-6.26c-.7-2.47-1.05-6.34-1.05-11.62V.84h9.54v37.18c0 6.16.59 10.44 1.99 12.84 1.41 2.41 3.55 4.33 6.42 5.79 2.88 1.45 6.26 2.18 10.17 2.18 5.56 0 10.09-1.45 13.59-4.36 1.84-1.56 3.17-3.41 3.99-5.53.81-2.12 1.22-5.77 1.22-10.92V.84h9.42v37.18c0 5.03-.37 8.83-1.1 11.39.15 2.56-1.64 4.7-2.72 6.4Zm-75.27 6.21c-.09-.16-.28-.42-.56-.8l-1.83-2.58-2.9-4.78-3.14-5.11c-1.93-2.69-3.71-4.83-4.48-5.98-2.45-2.03-3.66-3.18-5.2-3.88-1.3-.7-3.48-1.05-6.55-1.05h-2.44v29h-9.38V.84H199c6.62 0 11.88 1.64 15.77 4.92 3.89 3.28 5.84 7.72 5.84 13.31 0 3.81-.95 7.11-2.86 9.89-1.91 2.78-4.64 4.86-8.2 6.23 2.09 1.38 4.14 3.25 6.14 5.62 2 2.38 4.81 7.16 8.44 12.42 2.28 3.72 4.8 6.52 5.49 8.39l3.47 5.19h-11.16l-2.86-4.82Zm-8.16-43.03c0-2.06-.55-3.93-1.29-5.6-1.44-1.67-2.98-2.85-4.97-3.54-1.99-.69-5.27-1.03-9.87-1.03h-2.81v20.67h3.56c5.24 0 8.01-.41 10.48-1.22 1.06-.81 2.44-2.04 3.42-3.68.98-1.64 1.48-3.51 1.48-5.6Zm-66.82 48.09c-7.31 0-13.52-1.47-18.61-4.41-5.09-2.94-9.12-6.98-12.09-12.14-2.97-5.16-4.45-10.73-4.45-16.73 0-9.53 3.4-17.55 10.19-24.05 6.8-6.5 15.91-9.75 25.6-9.75 6.42 0 14.07 1.8 22.47 5.39v10.09c-7.66-4.38-15.14-6.56-22.45-6.56s-13.73 2.57-18.68 7.1c-4.95 4.73-7.43 10.66-7.43 17.79s2.44 13.09 7.31 17.72 11.11 6.94 18.7 6.94 15.69-2.44 23.25-7.31v10.31c-6.88 3.75-14.81 5.62-23.81 5.62ZM60.58.84h37.13v8.35H69.96v19.97h26.81v8.39H69.96v20.34H98.6v8.34H60.58V.84ZM36.47 62.01c-.09-.16-.28-.42-.56-.8l-1.83-2.58-2.9-4.78-3.14-5.11c-1.93-2.69-3.71-4.83-5.32-5.98-1.61-2.03-3.07-3.18-4.36-3.88-1.3-.7-3.48-1.05-6.55-1.05H9.37v29H0V.84h16.41c6.62 0 12.45 1.64 15.77 4.92 3.89 3.28 5.84 7.72 5.84 13.31 0 3.81-.95 7.11-2.86 9.89-1.69 2.78-4.64 4.86-8.2 6.23 2.09 1.38 4.14 3.25 6.14 5.62 2 2.38 4.81 7.16 8.44 12.42 2.28 3.72 4.11 6.52 5.48 8.39l3.47 5.19H39.33l-2.85-4.82Zm-7.38-43.03c0-2.06-1.33-3.93-2.42-5.6-1.09-1.67-2.63-2.85-4.62-3.54-1.99-.69-5.27-1.03-9.87-1.03H9.37v20.67h3.56c4.75 0 8.01-.41 9.77-1.22 1.76-.81 3.14-2.04 4.12-3.68.98-1.64 2.26-3.51 2.26-5.6Z" fill-rule="evenodd"/></svg>