<svg xmlns="http://www.w3.org/2000/svg" width="369.58" height="67.08" viewBox="0 0 369.58 67.08"><path d="M369.58 57.89v8.34h-38.02V.84h37.12v8.35h-27.75v19.97h26.81v8.39h-26.81v20.34h28.64Zm-79.03 9.19c-7.31 0-13.52-1.47-18.61-4.41-4.59-2.94-8.91-6.98-11.59-12.14-2.69-5.16-4.96-10.73-4.96-16.73 0-9.53 3.5-17.55 10.2-24.05 6.8-6.5 15.18-9.75 25.15-9.75 6.87 0 14.52 1.8 22.92 5.39v10.08c-7.66-4.38-15.14-6.56-22.45-6.56s-13.73 2.57-18.68 7.1c-4.95 4.73-7.43 10.66-7.43 17.79s2.44 13.09 7.31 17.72 11.11 6.94 18.7 6.94 16.58-2.44 23.25-7.31v10.31c-6.88 3.75-14.81 5.62-23.81 5.62ZM228.95.84h9.38v65.99h-9.38V.84Zm-42.41 65.77L158.31.84h9.44l19.7 45.98L207.01.84h9.34l-27.69 65.77h-2.12Zm-42.76-4.6c-.09-.16-.28-.42-.56-.8l-1.83-2.58-2.9-4.78-3.14-5.11c-1.93-2.69-3.71-4.83-5.32-5.98-1.61-2.03-3.07-3.18-4.36-3.88-1.3-.7-3.48-1.05-6.55-1.05h-2.44v29h-9.38V.84h16.41c6.63 0 11.88 1.64 15.77 4.92 3.89 3.28 5.84 7.72 5.84 13.31 0 3.81-.95 7.11-2.86 9.89-1.91 2.78-4.39 4.86-8.2 6.23 2.09 1.38 4.14 3.25 6.14 5.62 2 2.38 4.81 7.16 8.83 12.42 1.88 3.72 3.71 6.52 5.09 8.39l3.47 5.19h-11.16l-2.86-4.82Zm-8.16-43.03c0-2.06-.55-3.93-1.64-5.6-.28-1.67-2.63-2.85-4.62-3.54-1.99-.69-5.27-1.03-9.87-1.03h-2.81v20.67h3.56c4.75 0 8.01-.41 9.77-1.22 1.77-.81 3.14-2.04 4.12-3.68.98-1.64 1.48-3.51 1.48-5.6ZM53.29.84h37.12v8.35H62.66v19.97h26.81v8.39H62.66v20.34H91.3v8.34H53.29V.84ZM18.59 26.9l6.37 4.24c7.99 4.77 11.98 10.84 11.98 19.01 0 4.46-1.76 8.72-5.27 12-3.52 3.28-8.09 4.92-13.71 4.92-6.47 0-12.36-1.99-17.67-5.97V49.19c5.06 6.41 10.92 9.62 18.22 9.62 3.09 0 4.74-.82 6.7-2.45 1.95-1.63 2.93-3.68 2.93-6.14 0-3.99-2.88-7.77-8.62-11.34l-7.12-4.33c-4.47-2.73-7.65-5.41-9.11-8.05C.94 23.87 0 20.83 0 17.39c0-5.15 1.79-9.34 5.37-12.56C8.94 1.61 13.59 0 19.31 0s11.28 1.54 15.05 4.61v10.64c-4.72-4.54-9.8-6.81-15.23-6.81-3.06 0-5.58.71-7.55 2.12-1.97 1.42-2.95 3.23-2.95 5.44 0 1.96.73 3.8 2.28 5.51 1.34 1.71 3.67 3.51 7.68 5.39Z" fill-rule="evenodd"/></svg>