<svg xmlns="http://www.w3.org/2000/svg" width="642.22" height="78.37" viewBox="0 0 642.22 78.37"><path d="M614 37.08v40.51h-11.21V37.08L574.57 1.09h13.2l20.45 26.34 20.72-26.34h13.28L614 37.07Zm-75.6 41.29c-8.53 0-15.77-1.71-21.52-5.14-5.43-3.43-10.84-8.15-14.3-14.16-3.46-6.02-5.2-12-5.2-19 0-11.64 3.96-20.99 11.89-28.18C517.2 3.91 526.98.12 538.61.12c8.02 0 16.93 2.1 26.74 6.29v11.76c-8.93-5.1-17.4-7.49-26.2-7.49s-16.02 2.59-21.79 8.11c-5.78 5.52-8.34 12.44-8.34 21.28 0 7.86 2.52 14.75 8.21 20.15 5.69 5.4 12.96 8.09 21.82 8.09s18.3-2.84 27.12-8.53v12.03c-8.02 4.38-17.28 6.56-27.78 6.56ZM469.08 1.09h10.94v76.5h-10.94V1.09Zm-57.99 0h10.55v66.97h34.4v9.53h-44.95V1.09Zm-59.06 77.27c-11.51 0-21.11-3.69-28.77-11.07-7.67-7.38-10.69-16.63-10.69-27.23 0-11.93 3.05-21.38 10.78-28.85C331.07 3.74 340.84 0 352.64 0s21.63 3.74 29.49 11.21c7.85 7.47 11.78 16.84 11.78 28.11s-3.96 20.59-11.89 27.97c-7.92 7.38-17.92 11.07-29.97 11.07Zm22.05-59.69c-5.7-5.52-12.7-8.28-21.01-8.28-8.74 0-15.93 2.73-21.55 8.2-5.63 5.47-8.44 12.45-8.44 21.47 0 7.72 2.82 14.57 8.47 20.04 5.64 6.28 12.71 8.2 21.9 8.2 7.82 0 14.93-2.47 20.63-8.37 5.7-5.58 8.55-12.52 8.55-20.84s-2.85-14.9-8.55-20.43ZM289.8 42.02c-3.86 2.42-9.41 2.32-16.62 2.32h-8.09v33.24H254.1V.98h24.23c7.29 0 13.11 1.97 18.32 5.91 3.46 3.94 5.64 9.22 5.64 15.86 0 4.45-1.11 8.39-3.34 12.55-1.83 2.69-5.27 5.18-9.13 6.73Zm-13.4-31.31h-11.32v23.9h11.98c4.45 0 7.88-.25 10.28-3.14 3.14-2.1 3.61-5.1 3.61-9 0-7.84-4.85-11.76-14.55-11.76ZM160.85 1.09h43.31v9.74h-32.38v23.3h31.28v9.79h-31.28v23.74h33.41v9.73h-44.35V1.09Zm-40.33 76.5h-10.99V10.72h-26.2V.98h63.82v9.74h-26.63v66.87ZM58.59 1.09h10.94v76.5H58.59V1.09ZM21.65 31.65l7.46 4.79c9.32 5.57 13.98 12.65 13.98 21.26 0 6.12-2.05 11.1-6.15 14.93-4.1 3.83-9.43 5.74-16 5.74-7.55 0-14.42-2.32-20.62-6.96V57.85C6.23 65 13.06 68.74 20.83 68.74c3.43 0 6.28-.95 8.56-2.86 3.17-1.91 3.42-4.3 3.42-7.17 0-4.65-3.35-9.06-9.29-13.14l-9.09-5.15c-5.21-3.18-8.92-6.31-11.13-9.4C1.09 27.94-.01 24.4-.01 20.38c.01-6 2.1-10.73 6.27-14.64C10.44 1.99 15.86.11 22.53.11S35.65 1.9 40.09 5.68V17.9c-5.51-5.3-11.43-7.94-17.77-7.94-2.9 0-6.51.83-8.81 2.48-2.3 1.65-3.44 3.77-3.44 6.35 0 2.29.85 4.43 2.54 6.43s4.41 4.09 9.05 6.44Z" fill-rule="evenodd"/></svg>