<svg xmlns="http://www.w3.org/2000/svg" width="480.45" height="67.17" viewBox="0 0 480.45 67.17"><path d="M456.26 31.78v35.14h-9.61V31.78L422.47.94h11.32l17.52 22.58L469.37.94h11.08l-24.19 30.84Zm-95.32-15.79v50.94h-7.95V.94h6.73l44.16 50.86V.94h8.91v65.99h-8.06l-43.78-50.94Zm-37.47 31.03h-27.94l-8.18 19.91h-9.63L305.85.56h6.59l29.36 66.36h-9.6l-8.73-19.91Zm-14.23-32.06-9.99 23.72h20.36l-10.38-23.72Zm-46.03 21.07c-3.31 1.33-8.06 1.99-14.25 1.99h-6.94v28.91h-9.42V.84h20.77c6.25 0 11.23 1.69 14.95 5.06 4.41 3.38 5.58 7.91 5.58 13.59 0 3.81-.95 7.19-2.07 10.12-2.7 2.94-5.31 5.07-8.62 6.4ZM251.73 9.19h-9.7v20.48h10.27c4.44 0 7.54-.9 9.44-2.69 1.43-1.8 2.46-4.37 2.46-7.71 0-6.72-3.46-10.08-12.47-10.08Zm-45.02 6.28-20.13 25.31h-1.74l-20.37-25.31v51.46h-8.79V.94h8.29l21.76 26.89L207.37.94h9.64v65.99h-10.29V15.47Zm-101.72 51.7c-9.05 0-18.09-3.16-24.66-9.49s-9.86-13.74-9.86-23.79 3.31-17.88 9.93-24.28C87.02 3.2 95.39 0 105.51 0s18.69 3.2 25.27 9.61c6.73 6.41 10.1 14.44 10.1 24.09s-3.4 17.65-10.19 23.98c-6.79 6.33-15.36 9.49-25.69 9.49Zm18.9-51.16c-4.89-4.73-10.89-7.1-18.01-7.1-7.49 0-13.65 2.34-18.47 7.03-4.82 4.69-7.24 10.67-7.24 17.95s2.42 12.94 7.26 17.62c4.84 4.69 10.9 7.03 18.17 7.03s13.4-2.39 18.29-6.28c4.89-5.67 7.33-11.62 7.33-18.75s-2.44-12.77-7.33-17.51ZM35.16 67.17c-7.31 0-13.52-1.47-18.61-4.41-5.09-2.94-9.13-6.98-12.09-12.14C1.48 45.47 0 39.89 0 33.89c0-9.53 3.4-17.55 10.19-24.05C16.99 3.35 25.37.09 35.34.09c6.87 0 14.51 1.8 22.92 5.39v10.08C50.6 11.18 43.9 9 35.81 9c-7.5 0-13.3 2.57-17.82 7.1-5.81 4.73-8.29 10.66-8.29 17.79s2.44 13.09 7.31 17.72c4.88 4.62 11.89 6.94 18.7 6.94 7.94 0 15.69-2.44 23.25-7.31v10.31c-6.38 3.75-14.81 5.62-23.81 5.62Z" fill-rule="evenodd"/></svg>