<svg xmlns="http://www.w3.org/2000/svg" width="1101.72" height="55.25" viewBox="0 0 1101.72 55.25"><path d="M1101.13 40.65c-1.61 1.1-2.67 1.33-3.92 1.33s-2.29-.24-3.18-1.33c-.89-.89-1.33-1.94-1.33-3.15s.45-2.31 1.35-3.19c.9-.88 1.95-1.32 3.16-1.32 1.89 0 2.24.44 3.48 1.32.57.88 1.03 1.94 1.03 3.19s-.44 2.26-.59 3.15Zm-29.14-.51c-2.37 1.23-4.99 1.85-7.84 1.85s-5.48-.62-7.7-1.85c-2.47-1.23-4.25-2.91-5.47-5.04-1.22-2.13-1.83-4.61-1.83-7.44s.64-5.2 1.93-7.34c1.82-2.14 3.08-3.4 5.39-4.98 2.3-1.18 5.07-1.32 7.68-1.32 2.85 0 5.44.15 7.76 1.34 2.32 1.44 4.12 2.86 5.39 5.01 1.27 2.15 1.91 4.58 1.91 7.29s-.61 5.31-1.27 7.44c-1.79 2.13-3.17 3.81-5.96 5.04Zm-2.37-18.97c-1.36-1.51-3.2-2.27-5.52-2.27-2.19 0-3.96.8-5.33 2.4-.66 1.6-2.05 3.72-2.05 6.36s1.23 5.45 2.01 6.55c1.34 1.63 3.13 2.45 5.38 2.45s4.19-.78 5.54-2.34c1.35-1.56 2.02-3.8 2.02-5.96 0-3.52-.68-5.66-2.04-7.18ZM1020 41.99c-4.32 0-8.17-.86-11.57-2.58-3.4-1.72-5.7-4.19-7.13-7.43-2.82-3.23-3.8-6.77-3.8-10.62 0-4.12 1-7.64 3-11.1 2-3.28 4.76-5.81 8.26-7.59 3.51-1.78 7.46-2.67 11.85-2.67 2.32 0 4.6.26 6.83.79 2.23.53 4.63 1.43 7.21 2.7v7.44c-2.52-1.44-4.85-2.49-6.99-3.14-2.14-.64-4.37-.97-6.69-.97-2.91 0-5.54.6-7.88 1.8-2.34 1.2-4.16 3.79-5.46 5.08-.71 2.19-1.95 4.62-1.95 7.29s.84 5.19 1.93 7.35c1.29 2.28 3.1 3.84 5.45 5.02 3.1 1.64 4.98 1.77 7.91 1.77 2.25 0 4.74-.32 7.16-.97 1.31-.38 3.88-1.81 6.99-3.49v7.44c-2.66 1.54-5.1 2.67-7.32 2.96-2.23.59-4.82.88-7.79.88Zm-46.14-.53-3.78-4.31c-2.07 1.72-4.07 2.95-5.99 3.71-1.92 1.57-4.22 1.13-6.9 1.13-3.3 0-6.08-1-8.35-2.99-2.27-1.99-3.4-4.02-3.4-7.32 0-2.4.82-4.56 2.45-6.46 1.63-1.9 3.95-3.41 6.96-5.29-1.43-1.8-1.95-3.42-3.14-4.88-.66-.79-1-2.93-1-3.62 0-3.81 1.09-6.23 3.27-8.1 2.18-1.86 4.97-2.68 8.62-2.68 2.86 0 5.47.77 7.55 2.53 2.08 1.77 3.12 4.03 3.12 6.78 0 1.99-.62 3.85-1 5.68-2.1 1.6-4 3.3-6.56 4.98l5.83 6.5c1.45-1.66 2.98-3.83 4.36-6.5h7.76c-1.54 4.69-4.77 8.54-7.82 11.54l8.23 9.29h-10.23Zm-7.44-31.08c0-1.11-.39-2.04-1.17-2.13-.78-1.4-1.79-1.77-3.02-1.77-1.09 0-2.05.33-2.36 1-1.31.66-1.71 1.51-1.71 2.55 0 .9.36 1.94 1.08 3.12.72 1.18 1.56 2.2 2.52 3.06 1.42-.88 2.66-1.77 3.4-2.49.84-1.08 1.26-1.52 1.26-3.34Zm-7.56 14.84c-1.72.4-3.07 1.47-4.04 2.51-.98 1.05-1.15 2.18-1.15 3.41 0 1.31.19 2.77 1.19 3.31 1.01.9 2.2 1.35 3.59 1.35 2.34 0 4.82-1.13 7.44-3.4l-7.03-7.19Zm-37.41-1.05h-21.24v17.28h-7.91V.64h7.91v17.11h21.24V.64h8.32v40.81h-8.32V24.17Zm-58.57 17.28h-7.91V6.71h-14.53V.64h36.97v6.07h-14.53v34.74ZM817.56.64h7.91v40.81h-7.91V.64Zm-26.9 12.07h-.23L778.6 27.12h-1.11l-11.84-14.41h.63v28.74h-8.77V.64h7.12l13.45 16.03L791.53.64h7.06v40.81h-7.91V12.71Zm-59.55 5.27c3.36 2.09 5.78 3.34 7.81 5.27.93 1.93 1.68 4.75 1.68 6.97 0 3.52-1.06 7-3.79 8.51-2.53 2.16-5.81 3.24-9.83 3.24-2.2 0-4.87-.29-6.75-.86-1.64-.32-4-1.24-6.34-2.97v-7.79c4.38 3.63 9.08 5.45 12.36 5.45 1.93 0 3.5-.42 4.69-1.03 1.19-1.07 1.79-1.53 1.79-3.57 0-1.89-1.04-3.44-3.11-4.12-1.72-1.45-3.93-2.57-6.65-3.88-3.22-1.47-5.44-3.17-7.22-5.13-1.59-1.95-2.01-4.22-2.01-6.8 0-3.44.9-6.18 3.46-8.22 2.56-2.04 5.94-3.06 10.28-3.06 3.94 0 7.68 1 11.37 2.99v7.03c-4.24-2.56-8-3.84-11.28-3.84-1.99 0-3.55.86-4.67 1.16-1.12.77-1.68 1.8-1.68 3.09 0 1.54 1.04 2.97 3.39 4.28.33.39 2.59 1.48 6.52 3.28ZM691.6 41.45l-18.54-20.1v20.1h-7.91V.64h7.91v18.78h.17l15-18.78h8.99L681.99 19.8l19.75 21.65H691.6Zm-58.96.53c-3.43 0-8.17-.86-11.57-2.58-3.4-1.72-6.07-4.19-8.01-7.43-1.94-3.23-2.92-6.77-2.92-10.62 0-4.12 1-7.64 3-11.1 2-3.28 4.76-5.81 9.08-7.59 2.69-1.78 6.64-2.67 11.03-2.67 2.32 0 4.6.26 6.83.79 2.23.53 4.63 1.43 7.21 2.7v7.44c-2.52-1.44-4.85-2.49-6.99-3.14-2.14-.64-4.37-.97-6.69-.97-2.91 0-5.54.6-7.88 1.8-1.73 1.2-4.16 3.79-5.46 5.08-1.3 2.19-1.95 4.62-1.95 7.29s.64 5.19 1.93 7.35c1.29 2.28 3.46 3.84 5.45 5.02 2.34 1.64 4.98 1.77 7.91 1.77 2.25 0 4.39-.32 6.43-.97 2.04-.38 4.61-1.81 7.72-3.49v7.44c-2.66 1.54-5.1 2.67-7.32 2.96-2.23.59-4.82.88-7.79.88Zm-48.09-2.71c-3.64 1.81-7.51 2.71-11.8 2.71s-8.09-.92-11.56-2.75c-3.47-1.84-6.17-4.36-8.1-7.57-1.93-3.21-2.9-6.76-2.9-10.65s.97-7.27 2.9-10.58c1.93-3.3 4.6-5.4 8-7.69C564.49.91 569.13 0 572.81 0c4.24 0 8.05.88 11.44 2.62 3.39 1.75 6.31 4.27 8.43 7.56 2.11 3.29 3.17 6.9 3.17 10.82s-.81 7.38-3.43 10.65c-1.96 3.27-4.66 5.81-7.87 7.62Zm1.55-25.61c-1.93-2.18-3.65-3.86-5.87-4.17-2.22-2.07-4.71-2.67-7.49-2.67s-5.27.6-7.48 1.8c-2.22 1.2-3.64 2.88-5.11 5.04-1.19 2.16-1.31 4.6-1.31 7.34s.14 5.16 1.37 7.32c1.23 2.17 2.95 3.85 5.5 5.04 1.84 1.61 4.32 1.79 7.1 1.79 4.2 0 7.65-1.32 10.36-3.95 2.71-2.19 4.06-6.04 4.06-10.2 0-2.71-.61-5.16-1.12-7.34ZM511.03.64h7.91v34.63h19.86v6.18h-27.77V.64ZM488.05 40.1c-2.06.9-4.49 1.35-7.28 1.35h-17.14V.64h15c4.29 0 6.81.86 9.17 2.81 2.36 1.95 3.77 4.39 3.77 7.32 0 1.88-.72 3.53-1.7 4.95-.99 1.43-2.42 2.56-4.29 3.4v.35c2.85.64 5.07 1.92 6.67 3.82 1.59 1.9 2.39 4.14 2.39 6.69 0 2.27-.58 4.29-1.74 6.08-1.16 1.79-2.77 3.13-4.83 4.03Zm-6.43-32.01c-1.11-.93-2.58-1.39-4.39-1.39h-5.68v11.31h4.98c2.09 0 3.74-.99 4.95-1.99s1.82-2.38 1.82-4.16c0-1.58-.56-2.84-1.67-3.76Zm2.83 17.11c-1.36-1.01-3.18-1.51-5.46-1.51h-7.44v11.57h7.25c2.25 0 4.27-.5 5.64-1.51s2.05-2.49 2.05-4.44c0-1.08-.68-3.11-2.04-4.12Zm-75.68 30.04h-5.21c3.32-3.97 5.87-8.2 7.35-12.5 1.58-4.73 2.37-9.71 2.37-14.41 0-6.33-.82-11.38-2.45-15.88-1.63-4.5-4.06-8.66-7.28-12.47h5.21c3.44 3.28 6.55 7.44 8.91 12.48 2.36 5.53 3.55 10.47 3.55 15.86 0 5-1.14 9.71-3.43 14.16-2.29 4.94-5 9.19-9.03 12.74Zm-22.85-13.27c-4.43 0-8.03-1.27-10.8-3.81-2.43-2.54-4.14-5.91-4.14-10.11s2.14-7.86 4.06-10.21c2.7-2.96 6.21-3.84 10.5-3.84 3.18 0 6.07.16 8.64 1.4v6.28c-2.56-1.65-4.98-2.39-7.27-2.39-2.46 0-4.47.77-6.03 3.13-1.56.7-2.34 2.78-2.34 5.4s.79 4.62 2.36 6.18c1.57 2.12 3.67 2.34 6.28 2.34 1.95 0 4.45-.64 7.5-1.93v5.83a23.068 23.068 0 0 1-8.76 1.73Zm-23.74 13.27h-4.36c-4.24-3.53-7.61-7.79-9.88-12.76-2.26-4.88-3.4-9.54-3.4-14.15 0-5 1.14-10.73 3.43-15.69 2.29-4.96 6.01-9.18 9.85-12.66h4.36c-3.2 3.79-5.62 7.94-7.27 12.45-1.64 4.51-2.46 9.56-2.46 15.89 0 4.78.81 9.81 2.43 14.36 1.62 4.54 4.05 8.73 7.3 12.55Zm-38.07-13.27c-3.09 0-5.49-.84-7.22-2.52-1.73-1.68-2.59-3.96-2.59-6.83V19.76h-4.28v-1.41l10.87-11.54h.59v7.27h9.38v5.68h-9.38v12.39c0 1.23.37 2.23 1.11 2.99.84.76 1.91 1.14 3.05 1.14 1.68 0 3.61-.6 5.8-1.82v5.77c-2.6 1.15-4.43 1.73-7.32 1.73Zm-34.02-17.2c0-1.78-.43-2.4-1.28-3.75-.85-1.35-2.01-2.02-3.34-2.02-1.24 0-2.29.33-3.26.98-.98.66-2.05 1.74-3.22 3.27v18.19h-7.21V14.09h7.21v3.84c1.33-1.56 2.69-2.68 4.09-2.82 1.4-1.21 2.91-1.1 4.56-1.1 2.93 0 5.27.62 7.02 2.43 2.32 1.92 2.62 4.46 2.62 7.6v17.4h-7.18V24.79Zm-34.62-3c.3 1.31.45 1.65.45 2.56 0 2.36-.82 4.37-2.46 6.01-1.44 1.58-3.92 2.61-7.44 3.08-1.9.23-3.15.5-3.76.81-.62.5-.13.77-.13 1.39 0 .57-.42 1 .34 1.3.75.3 2.8 1.09 3.62.86 4.12.66 7.15 1.68 9.1 3.05 1.94 1.37 2.91 3.17 2.91 5.42 0 2.89-1.18 5.11-3.54 6.67-2.36 1.55-5.76 2.33-9.96 2.33-4.43 0-7.77-.04-9.56-2.2-3.17-.77-4.41-3.43-4.41-5.89 0-3.48 2.39-5.88 7.18-7.21-2.07-.9-3.11-2.08-3.11-3.54 0-1.91 1.56-3.23 5.1-3.96v-.12c-2.54-.59-4.24-1.63-5.5-3.13-1.26-1.5-1.23-3.26-1.23-5.27 0-2.95.46-4.48 2.68-7.13 2.23-1.81 5.14-2.71 8.73-2.71h14.09v5.1h-4.69c.76.94 1.29 1.8 1.6 2.59Zm-16.39 22.44c-1.17.69-1.76 1.57-1.76 2.62 0 2.44 2.44 3.66 7.32 3.66 2.11 0 4.52-.34 4.97-1.01 1.2-.67 2.58-1.56 2.58-2.65 0-1.21-1.46-2.12-2.37-2.74-1.81-.62-3.73-.92-6.21-.92-1.86 0-3.37.48-4.54 1.04Zm8.76-23.85c-1-.91-2.2-1.36-3.6-1.36s-2.67.49-3.68 1.48c-1.01.99-1.51 2.15-1.51 3.5 0 1.43.5 3.44 1.51 3.91 1.01.6 2.23 1.07 3.68 1.07s2.71-.49 3.66-1.48c.96-.99 2.13-2.23 2.13-3.73 0-1.35-1.19-2.48-2.19-3.38Zm-34.15-9.91c-1.09 0-2.05-1.27-2.86-2.1-.81-.65-1.22-1.18-1.22-2.86 0-1.13.41-2.1 1.23-2.89.82-.79 1.77-1.19 2.84-1.19s2.07.4 2.87 1.2c1.11.8 1.2 1.76 1.2 2.87 0 1.68-.04 2.21-1.19 2.86-.79.83-1.75 2.1-2.89 2.1Zm-24.19 9.87c-.58 0-2.21.42-3.3 1.8-1.08.27-1.95 1.37-2.61 2.74-.65 1.37-.98 3.57-.98 4.1v12.48h-6.49V14.09h6.49v6.97h.12c1.31-2.64 2.91-4.15 3.96-5.73 1.33-1.18 2.78-1.32 4.37-1.32.96 0 1.9-.23 2.83.19.93.43 2.01 1.15 3.24 2.17l-2.58 6.3c-2.09-1.56-3.77-2.34-5.04-2.34Zm-53.71 34.92 8.7-18.84-10.63-22.32h7.79l6.47 14.71 6.56-14.71h8.53l-19.69 41.16h-7.74Zm-18.68-15.09c-2.07 1.21-4.41 1.82-7.03 1.82-2.13 0-4.27-.54-6.42-1.61v14.88h-7.21V14.09h7.15v1.76c2.17-1.52 4.48-1.83 6.94-1.83 3.91 0 7.06.86 9.45 3.48 2.88 2.62 3.59 6.12 3.59 10.23 0 2.75-.56 5.22-1.68 7.38-1.12 2.17-2.72 3.86-4.79 5.07Zm-2.41-18.78c-1.55-1.58-2.55-2.37-5.53-2.37-.84 0-1.65.14-2.43.42-.78.28-1.81.88-3.08 1.8v13.86c1.8 1.03 3.48 1.55 5.04 1.55 2.27 0 4.08-.81 5.45-2.43 1.37-.87 2.05-3.71 2.05-6.27 0-2.79-.61-4.98-1.5-6.56ZM74.5 40.12c-2.37 1.23-4.99 1.85-7.84 1.85s-5.48-.62-7.82-1.85-4.13-2.91-5.35-5.04c-1.22-2.13-1.83-4.61-1.83-7.44s.65-5.2 1.93-7.34c1.29-2.14 3.09-3.4 5.39-4.98 2.3-1.18 4.86-1.32 7.67-1.32s5.44.15 8.64 1.34c1.45 1.44 3.25 2.86 4.52 5.01 1.27 2.15 1.9 4.58 1.9 7.29s-.61 5.31-1.83 7.44c-1.22 2.13-3.02 3.81-5.39 5.04Zm-2.37-18.97c-1.36-1.51-3.2-2.27-5.52-2.27-1.4 0-3.97.8-5.33 2.4-1.37 1.6-2.05 3.72-2.05 6.36s.67 5.45 2.01 6.55c1.34 1.63 3.39 2.45 5.38 2.45 2.34 0 4.19-.78 5.54-2.34 1.35-1.56 2.02-3.8 2.02-5.96 0-3.52-.68-5.66-2.04-7.18ZM22.5 41.98c-4.32 0-7.48-.86-11.57-2.58-3.4-1.72-6.07-4.19-8.01-7.43C.98 28.74.01 25.2.01 21.35c0-4.12 1-7.64 3-11.1 2-3.28 4.76-5.81 8.26-7.59C14.77.89 18.72 0 23.11 0c2.32 0 4.6.26 6.83.79 2.23.53 4.63 1.43 7.21 2.7v7.44c-2.52-1.44-4.85-2.49-6.99-3.14-2.14-.64-4.37-.97-6.69-.97-2.91 0-5.54.6-7.88 1.8-2.34 1.2-4.17 3.79-5.46 5.08-1.3 2.19-1.95 4.62-1.95 7.29s.64 5.19 1.93 7.35c1.98 2.28 3.11 3.84 5.45 5.02 2.34 1.64 4.98 1.77 7.91 1.77 2.25 0 4.39-.32 6.43-.97 2.04-.38 4.61-1.81 7.72-3.49v7.44c-2.66 1.54-5.1 2.67-7.32 2.96-2.23.59-4.83.88-7.79.88Zm194.79-.53h-7.21V14.09h7.21v27.36Z" fill-rule="evenodd"/></svg>