<svg xmlns="http://www.w3.org/2000/svg" width="286.69" height="68" viewBox="0 0 286.69 68"><path d="M277.14 40.71c.1.89 1.29 1.33 2.79 1.33 1.96 0 4.21-.71 6.77-1.98v6.59c-3.03 2.2-5.88 2.02-8.55 2.02-3.6 0-6.41-.98-8.42-2.94s-3.03-4.61-3.03-7.96V22.49h-4.99v-1.37l12.68-13.47h.68v8.48h10.94v6.36h-10.94v14.73c0 1.44.43 2.6 2.06 3.49Zm-36.03 7.96c-5.17 0-9.37-1.48-12.6-4.44-3.03-2.96-4.84-6.89-4.84-11.79s1.58-9.17 4.73-12.27c3.16-3.1 7.24-4.65 12.25-4.65 4.53 0 7.08.72 10.08 2.15v7.14c-2.99-1.73-5.81-2.6-8.48-2.6-2.87 0-5.22.89-7.04 2.68-1.82 1.79-2.74 4.21-2.74 7.26s.92 5.39 2.75 7.21c1.83 1.82 4.28 2.73 7.33 2.73 2.28 0 5.19-.75 9.13-2.26v6.8c-3.68 2.2-7.09 2.02-10.6 2.02Zm-35.55 0c-1.5 0-2.66-.25-3.47-.63-.81-.63-1.37-1.51-1.69-2.79-3.21 2.28-6.44 3.42-9.67 3.42-2.3 0-4.28-.77-5.93-2.32-1.65-1.55-2.21-3.08-2.21-5.57 0-2.76.55-4.93 2.19-6.53 1.64-1.59 4.81-2.98 8.61-4.17l6.8-1.98v-1.47c0-3.12-1.77-4.34-5.67-4.34-1.94 0-3.86.1-5.78.99-1.91.89-3.66 2.2-5.23 3.93v-7.55c3.49-2.76 7.62-4.14 12.41-4.14 4.1 0 7.23.87 9.7 2.61 1.87 1.74 2.95 4.18 2.95 7.3v15.62c0 1.21.49 1.81 1.47 1.81.41 0 .99-.18 1.73-.53.74.3 1.36-.76 1.86-1.21v5.45c-2.94 1.21-5.63 2.11-8.07 2.11Zm-5.37-16.24c-2.35.8-4.19 2.28-5.52 2.26-.86.71-1.66 1.42-2.94 2.15-.63.73-.94 1.62-.94 2.67 0 1.16.37 2.1 1.11 2.8.74.71 1.66 1.06 2.75 1.06 1.85 0 4.23-.84 5.54-2.53v-8.41Zm-37.24 16.24c-3.02 0-6.41-.98-8.43-2.94-2.02-1.96-3.02-4.61-3.02-7.96V22.49h-4.99v-1.37l12.68-13.47h.68v8.48h10.94v6.36h-10.94v14.73c0 1.44.62 2.6 1.3 3.49.87.89 2.05 1.33 3.55 1.33 1.96 0 4.22-.71 6.77-1.98v6.59c-3.03 2.2-5.88 2.02-8.54 2.02Zm-36.16-20.06c0-2.07-.41-3.71-1.32-4.92-.91-1.21-2.51-1.81-4.22-1.81-1.3 0-2.52.38-3.66 1.15-1.14.76-2.39 2.03-3.76 3.81v21.23h-8.41V16.14h8.41v4.48c1.55-1.82 3.14-3.13 4.77-3.91 1.63-.29 3.4-1.18 5.32-1.18 3.89 0 6.15 1.12 8.19 3.37 2.04 2.24 3.06 5.2 3.06 8.87v20.3h-8.37V28.61ZM84.04 46.52c-3.45 1.88-6.5 2.15-9.83 2.15s-6.39-.28-9.13-2.15c-2.09-1.43-4.81-3.4-6.24-5.88-1.42-2.48-2.14-5.38-2.14-8.2 0-3.69.75-6.54 2.26-9.04 1.5-2.49 3.6-3.9 6.29-5.81 2.69-1.38 5.67-2.07 8.96-2.07s6.35.69 9.06 2.09c2.71 2.17 4.81 3.65 6.29 5.84 1.48 2.95 2.22 5.34 2.22 8.99 0 2.83-.71 5.72-2.14 8.2-1.42 2.48-3.52 4.44-5.6 5.88Zm-3.45-22.13c-1.58-1.77-3.73-2.65-6.44-2.65-2.55 0-4.63.93-6.22 2.8-1.16 1.87-2.39 4.34-2.39 7.89 0 2.71 1.06 5.26 2.34 7.16 1.56 1.9 3.65 2.85 6.27 2.85s4.89-.91 6.46-2.74c1.57-1.82 2.36-4.43 2.36-7.83s-.79-5.74-2.38-7.5ZM26.25 48.67c-5.04 0-9.54-1-13.5-3.01-3.97-2-7.08-4.89-9.35-7.82C1.13 33.23 0 29.1 0 24.61c0-4.81 1.17-9.13 3.5-12.95 2.34-3.83 5.55-6.78 9.64-8.85C17.23.73 21.84-.3 26.97-.3c2.71 0 5.79 1.16 7.96.92 2.6.62 5.81 1.66 8.88 3.14v8.68c-3.42-1.69-6.13-2.91-8.63-3.66-2.5-.75-5.1-1.13-6.99-1.13-4.22 0-7.28.7-10.01 2.1-2.73 1.4-4.53 3.38-6.37 5.93-.92 2.55-2.27 5.39-2.27 8.51s.85 6.05 2.26 8.58c2.39 2.53 3.62 4.48 6.36 5.86s5.81 2.07 10.05 2.07c1.8 0 4.3-.38 6.68-1.13 2.38-.75 5.38-2.11 9.01-4.07v8.68c-3.1 1.62-5.95 3.28-8.05 3.45-3.09.68-6.12 1.02-9.59 1.02Z" fill-rule="evenodd"/></svg>