<svg xmlns="http://www.w3.org/2000/svg" width="1527.83" height="287.81" viewBox="0 0 1527.83 287.81"><path d="M1527.83 270.43v16.02h-69.61V180.41h68.54v16.02h-48.05v27.86h46v16.02h-46v30.14h49.11Zm-123.15 4.86c-5.87-11.28-10.17-18.89-12.91-22.81-2.73-3.92-5.36-6.7-7.89-8.35-2.53-1.64-5.44-2.47-7.98-2.47h-8.19v44.79h-20.49V180.41h38.18c9.97 0 18.09 2.98 24.37 8.27 6.28 6.01 9.41 12.7 9.41 22.43 0 5.15-1.56 10.4-4.67 14.88s-7.73 8.01-13.85 10.59c3.39 1.82 6.4 4.3 9.03 7.44 2.63 3.26 5.89 8.42 9.79 15.86 6.48 12.86 11.28 21.71 14.42 26.57h-22.85c-1.57-2.33-3.7-6.05-6.38-11.16Zm-11.24-75.57c-3.04-2.4-7.24-3.6-12.98-3.6h-12.75v29.53h13.06c5.94 0 9.58-1.34 12.64-4.02 3.06-2.68 4.59-6.35 4.59-11.01s-1.52-8.49-4.56-10.89Zm-128.84 88.09c-9.82 0-18.33-1.75-25.54-5.24-7.21-3.49-12.71-8.54-16.51-15.14-3.79-6.6-5.69-14.36-5.69-23.02V180.4h20.57v61.71c0 6.33.95 11.36 2.85 15.86 1.9 2.99 5 6.08 9.3 8.5 4.3 2.43 9.31 3.64 15.03 3.64 6.27 0 11.6-1.15 15.98-3.45 4.38-2.3 8.4-4.58 9.6-9.41 2.02-3.97 3.04-9.48 3.04-16.51v-60.35h20.5v63c0 14.27-4.28 25.24-12.83 32.91-8.55 7.67-20.65 11.5-36.28 11.5Zm-111.01-1.37h-20.19v-90.03h-37.96v-16.02h95.8v16.02h-37.65v90.03Zm-132.94 1.37c-9.82 0-18.33-1.75-25.15-5.24-7.61-3.49-13.11-8.54-16.91-15.14-3.79-6.6-5.69-14.36-5.69-23.02V180.4h20.57v61.71c0 6.33.95 11.36 2.85 15.86 1.9 2.99 5 6.08 9.3 8.5 4.3 2.43 9.31 3.64 15.03 3.64 6.28 0 11.6-1.15 15.98-3.45 4.38-2.3 7.58-4.58 9.6-9.41 2.02-3.97 3.04-9.48 3.04-16.51v-60.35h20.49v63c0 14.27-4.28 25.24-12.83 32.91-8.55 7.67-20.65 11.5-36.28 11.5ZM952.28 14.73v92.68h-8.06V1.37h6.81l80.42 92.68V1.37h8.2v106.04h-6.75l-80.62-92.68Zm-50.92 56.02H849.5l-16.71 36.66h-8.6L873.21.61h4.5l49.03 106.8h-7.94l-17.43-36.66Zm-25.97-56.78-22.77 49.95h45.62l-22.85-49.95Zm-124 273.84c-11.47 0-21.61-2.3-30.69-6.91-9.08-4.6-16.17-11.06-21.25-19.36-5.09-8.3-7.63-17.56-7.63-27.78s2.57-19.76 7.71-28.16c5.14-7.8 12.3-14.93 21.48-19.58 9.18-4.65 19.42-6.98 30.7-6.98 13.06 0 26.01 2.91 38.87 8.73v18.75c-12.85-6.53-25.51-9.79-37.95-9.79-7.74 0-14.62 1.54-20.65 4.63-6.02 3.09-10.69 7.53-14.01 13.32-3.32 5.79-4.97 12.26-4.97 19.4 0 10.83 3.61 19.55 10.82 26.89 7.21 5.87 16.71 9.17 28.5 9.17 3.24 0 6.34-.28 9.3-.83 2.96-.56 6.82-1.62 10.59-3.19v-17.61h-17.54v-16.02h38.03v44.27c-5.21 3.09-11.47 5.94-18.79 7.99-7.31 2.05-14.92 3.07-22.52 3.07Zm-32.92-179.03c-16.45 0-30.17-5.21-41.18-15.34-11.01-10.72-16.51-23.73-16.51-39.31s5.4-28.38 16.21-38.67C687.79 5.29 701.37.01 717.71.01c11.13 0 23.25 3.01 36.36 9.03v9.26c-12.55-6.94-25.08-10.7-37.58-10.7-13.28 0-24.57 4.45-33.48 13.36-8.53 8.91-13.36 20.07-13.36 33.48s4.4 24.56 13.21 33.44c8.81 8.88 20.77 13.76 35.91 13.76 10.93 0 20.62-2.62 29.07-6.97V66.05h-22.39v-6.18h31.1v39.96c-12.93 5.97-25.48 8.96-38.08 8.96Zm-56.59 71.62v106.04h-17.61l-63.38-74.48v74.48h-20.04V180.4h17.99l63 74.01V180.4h20.04ZM542.63 14.73v92.68h-8.2V1.37h6.95l80.42 92.68V1.37h8.2v106.04h-6.75l-80.62-92.68Zm-37 165.67h21.05v106.04h-21.05V180.4Zm-8.2-179.03h8.2v106.04h-8.2V1.37Zm-56.19 285.08h-20.66v-90.03h-37.65V180.4h95.8v16.02h-37.49v90.03Zm-4.19-179.04h-8.27V8.76H389V1.37h87.83v7.39h-39.78v98.65Zm-76.12-36.66h-51.74l-16.83 36.66h-8.6L332.78.61h4.5l49.03 106.8h-8.6l-16.78-36.66Zm-25.97-56.78-22.77 49.95h45.62l-22.85-49.95Zm-40.18 167.12c5.12 1.37 11.94 3.7 18.03 6.98v19.28c-6.53-3.74-12.56-6.45-18.1-7.31-5.54-2.48-11.32-3.31-17.35-3.31-7.54 0-14.35 1.56-20.42 4.67-6.07 3.11-10.02 7.5-14.16 13.17-3.37 6.5-5.05 11.97-5.05 18.9s1.67 13.44 5.01 19.05c3.55 5.62 8.05 9.96 14.12 13.02 6.07 3.06 12.9 4.59 20.49 4.59 5.82 0 11.37-.83 16.66-2.51 5.29-1.67 11.95-4.68 20-9.03v19.28c-6.18 3.59-13.21 6.15-18.98 7.67s-12.5 2.28-20.19 2.28c-11.18 0-21.18-2.23-29.98-6.68-8.51-4.45-14.99-10.87-20.34-19.24-5.36-8.38-7.98-17.55-7.98-27.52 0-10.68 3.38-20.27 7.78-28.77 5.19-8.5 12.32-15.05 21.41-19.66 9.08-4.6 19.32-6.91 30.7-6.91 6.02 0 11.92.68 18.33 2.05ZM208.51 1.37h57.84v7.39h-49.64v41.87h48.35v6.91h-48.35v43.04h50.86v6.83h-59.06V1.37Zm-28.2 285.08-31.6-39.62-32.77 39.62H90.77l45.19-54.88-42.58-51.16h25.52l29.81 35.9 28.18-35.9h25.51l-41.52 51.16 45.39 54.88h-25.96Zm14.5-179.04h-9.31l-18.87-29.06c-6.17-9.72-10.98-15.78-14.42-17.98-3.44-2.61-8.48-3.81-14.62-3.81h-14.83v50.86h-8.2V1.37h27.17c12.06 0 20.09 2.47 26.11 7.4s9.03 11.6 9.03 20c0 12.25-6.73 20.85-20.19 25.81 3.49 1.67 8.2 7.06 14.12 16.17l23.99 36.66Zm-33.89-63.12c4.73-3.62 7.1-8.74 7.1-15.37s-2.4-11.61-7.21-15.26c-4.81-3.64-11.48-4.91-20.55-4.91h-17.48v40.97h17.61c8.96 0 15.8-1.81 20.53-5.43ZM56.47 108.78c-16.14 0-29.59-5.17-39.75-15.52C5.38 82.9 0 70.01 0 54.58s5.49-28.52 16.47-38.94C27.45 5.9 40.53 0 55.72 0c11.94 0 24.53 2.96 37.27 8.88v8.96C80.75 11.01 67.53 7.59 55.19 7.59c-13.16 0-24.16 4.48-33.02 13.43-8.86 8.96-13.28 20.43-13.28 33.55 0 13.96 4.45 24.72 13.36 33.47 9.65 8.75 20.27 13.57 34.08 13.57 11.54 0 24.11-4.06 37.73-11.3v8.5c-12.55 6.63-25.07 9.94-37.57 9.94Zm13.06 87.64H21.49v27.86h46v16.02h-46v30.14H70.6v16.02H.99V180.42h68.55v16.02Zm290.36 90.03h-21.24V180.41h21.24v106.04Zm584.29-90.03H900v27.4h44.18v16.17H900v46.46h-20.49V180.41h64.67v16.02Z" fill-rule="evenodd"/></svg>