<svg xmlns="http://www.w3.org/2000/svg" width="282.58" height="41.05" viewBox="0 0 282.58 41.05"><g fill="#231815"><path d="M66.24 31.25h-6.47V12.12h5.01c1.58 0 2.81.21 3.7.64.89.42 1.56 1.01 2.03 1.75.46.74.7 1.6.7 2.58 0 1.88-.97 3.23-2.92 4.04 1.4.27 2.51.84 3.33 1.73.83.88 1.24 1.94 1.24 3.17 0 .98-.25 1.85-.75 2.62s-1.24 1.39-2.21 1.88c-.97.48-2.19.73-3.65.73Zm-1.38-16.69h-2.35v5.75h1.82c1.46 0 2.5-.28 3.11-.83s.92-1.28.92-2.16c0-1.83-1.17-2.75-3.5-2.75Zm.21 8.19h-2.56v6.06h2.7c1.5 0 2.51-.12 3.05-.35.53-.23.96-.6 1.29-1.09.32-.49.49-1.02.49-1.59s-.17-1.12-.51-1.6c-.34-.48-.83-.84-1.46-1.08s-1.62-.36-2.98-.36ZM74.99 12.12h2.74v16.64h8.61v2.49H74.99V12.12ZM96.6 11.85c2.96 0 5.42.94 7.38 2.81 1.97 1.87 2.95 4.22 2.95 7.04s-.99 5.15-2.98 7-4.48 2.77-7.5 2.77-5.28-.92-7.2-2.77-2.88-4.16-2.88-6.95.97-5.22 2.9-7.09 4.38-2.81 7.33-2.81Zm.11 2.6c-2.19 0-3.99.68-5.39 2.05-1.41 1.37-2.11 3.12-2.11 5.24s.71 3.78 2.12 5.15c1.41 1.37 3.18 2.05 5.31 2.05s3.91-.7 5.34-2.09c1.43-1.4 2.14-3.13 2.14-5.22s-.71-3.73-2.14-5.11c-1.43-1.38-3.18-2.07-5.26-2.07ZM126.21 26.81v3.01c-2.01 1.1-4.33 1.64-6.95 1.64-2.13 0-3.95-.43-5.43-1.29-1.49-.86-2.67-2.04-3.53-3.55s-1.3-3.13-1.3-4.89c0-2.78.99-5.12 2.98-7.02 1.99-1.9 4.43-2.85 7.34-2.85 2.01 0 4.24.52 6.69 1.57v2.94c-2.24-1.28-4.42-1.92-6.56-1.92s-4.01.69-5.46 2.07c-1.45 1.38-2.17 3.11-2.17 5.19s.71 3.82 2.14 5.17 3.24 2.03 5.46 2.03 4.58-.71 6.79-2.14ZM139.84 12.12h3.42l-8.29 9.08 10.33 10.05h-3.74l-9.77-9.45v9.45h-2.74V12.12h2.74v8.75l8.05-8.75ZM151.75 23.23l-2.08-1.26c-1.31-.8-2.23-1.58-2.79-2.35-.55-.77-.83-1.66-.83-2.66 0-1.51.52-2.73 1.57-3.67 1.04-.94 2.4-1.41 4.07-1.41s3.06.45 4.39 1.34v3.11c-1.38-1.33-2.86-1.99-4.45-1.99-.89 0-1.63.21-2.2.62-.58.41-.86.94-.86 1.59 0 .57.21 1.11.63 1.61.42.5 1.1 1.03 2.04 1.58l2.09 1.24c2.33 1.39 3.5 3.17 3.5 5.32 0 1.53-.51 2.78-1.54 3.74-1.03.96-2.36 1.44-4 1.44-1.89 0-3.61-.58-5.16-1.74v-3.48c1.48 1.87 3.19 2.81 5.13 2.81.86 0 1.57-.24 2.14-.72.57-.48.86-1.08.86-1.79 0-1.16-.84-2.27-2.52-3.31ZM174.02 12.12h2.56v19.13h-2.75V16.37l-5.88 7.39h-.51l-5.95-7.39v14.88h-2.74V12.12h2.59l6.35 7.85 6.32-7.85ZM179.61 12.12h2.74v19.13h-2.74V12.12ZM185.13 12.1h15.97v2.44h-6.67v16.71h-2.75V14.53h-6.56v-2.44ZM217.34 12.12h2.74v19.13h-2.74v-8.32h-10.75v8.32h-2.74V12.12h2.74v8.27h10.75v-8.27ZM238.1 31.25l-2.23-2.61c-.19.19-.52.47-.99.84l-.03.03c-.65.54-1.45 1-2.41 1.39-.95.38-1.85.58-2.69.58-1.32 0-2.45-.43-3.37-1.29S225 28.28 225 27.03c0-.89.23-1.7.68-2.42.45-.72 1.19-1.46 2.21-2.2l.04-.04c.6-.45 1.12-.79 1.56-1.03-1.44-1.54-2.16-3.02-2.16-4.44 0-1.3.44-2.36 1.33-3.18.88-.81 2.03-1.22 3.45-1.22s2.53.4 3.42 1.19 1.34 1.81 1.34 3.04c0 1.67-1.12 3.3-3.35 4.88l-.19.15 2.69 3.07c.79-.86 1.47-1.89 2.06-3.08h2.74c-.66 1.7-1.7 3.37-3.11 5.02l3.88 4.48h-3.48Zm-4.53-3.96.62-.56-3.11-3.59-1.21.85c-1.42.96-2.14 1.93-2.14 2.92 0 .54.23 1 .7 1.38.47.38 1.03.58 1.68.58.51 0 1.09-.15 1.73-.44s1.22-.67 1.72-1.14Zm-1.78-7.38 1.05-.74c.97-.69 1.46-1.48 1.46-2.39 0-.56-.2-1.02-.61-1.4-.41-.38-.92-.56-1.54-.56s-1.1.17-1.49.52-.59.78-.59 1.3.15 1.05.46 1.64c.31.59.73 1.13 1.26 1.63ZM262.24 26.81v3.01c-2.01 1.1-4.33 1.64-6.95 1.64-2.13 0-3.95-.43-5.43-1.29-1.49-.86-2.67-2.04-3.53-3.55s-1.3-3.13-1.3-4.89c0-2.78.99-5.12 2.98-7.02 1.99-1.9 4.43-2.85 7.34-2.85 2.01 0 4.24.52 6.69 1.57v2.94c-2.24-1.28-4.42-1.92-6.56-1.92s-4.01.69-5.46 2.07c-1.45 1.38-2.17 3.11-2.17 5.19s.71 3.82 2.14 5.17 3.24 2.03 5.46 2.03 4.58-.71 6.79-2.14ZM271.29 18.63c1.92 0 3.51.62 4.78 1.86 1.27 1.24 1.9 2.79 1.9 4.66s-.64 3.32-1.93 4.52c-1.29 1.2-2.91 1.8-4.86 1.8s-3.47-.61-4.74-1.83c-1.27-1.22-1.9-2.74-1.9-4.57s.64-3.38 1.92-4.61c1.28-1.23 2.89-1.84 4.83-1.84Zm-.14 2.25c-1.2 0-2.18.39-2.94 1.18-.77.78-1.15 1.78-1.15 3s.39 2.19 1.18 2.95c.78.76 1.79 1.14 3.03 1.14s2.22-.38 3-1.16 1.17-1.76 1.17-2.96-.41-2.19-1.22-2.97c-.81-.79-1.83-1.18-3.07-1.18ZM280.9 28.19c.46 0 .86.16 1.19.48.33.32.49.71.49 1.18s-.16.84-.49 1.15c-.32.31-.72.46-1.2.46s-.86-.16-1.18-.46c-.32-.31-.48-.69-.48-1.15s.16-.86.48-1.18.71-.48 1.18-.48Z"/></g><g fill="#231815"><path d="m50.46 13.75-1.27-1.27a.822.822 0 0 0-.73-.22l-.68.15-9.5-9.49.15-.68a.763.763 0 0 0-.22-.73L36.94.24a.822.822 0 0 0-.73-.22L34.3.43c-.15.03-.29.11-.4.22l-4.8 4.8c-.11.11-.18.25-.22.4l-.41 1.91c-.06.27.02.54.22.73l1.27 1.27c.19.19.47.27.73.22l.68-.15 1.94 1.94-.15.69c-.04.17-.01.36.07.52.03.06.06.12.11.17l.69.69-8.7 8.7-8.7-8.7.69-.69s.09-.1.11-.17c.08-.16.11-.35.07-.52l-.15-.69 1.94-1.94.68.15c.27.06.54-.02.73-.22l1.27-1.27c.19-.19.27-.47.22-.73l-.41-1.91a.794.794 0 0 0-.22-.4L16.79.64a.877.877 0 0 0-.4-.22l-1.91-.4a.763.763 0 0 0-.73.22l-1.27 1.27c-.19.19-.27.47-.22.73l.15.68-9.49 9.49-.68-.15a.763.763 0 0 0-.73.22L.23 13.75c-.19.19-.27.47-.22.73l.41 1.91c.03.15.11.29.22.4l4.8 4.8c.11.11.25.18.4.22l1.91.41c.27.06.54-.02.73-.22l1.27-1.27c.19-.19.27-.47.22-.73l-.15-.68 1.94-1.94.69.15c.17.04.36.01.52-.07a.62.62 0 0 0 .17-.11l.69-.69 8.7 8.7-10.17 10.17h-.22a.56.56 0 0 0-.46.16l-.18.18a.61.61 0 0 0-.18.46l.06.94-.93-.06a.575.575 0 0 0-.46.18l-.18.18a.61.61 0 0 0-.18.46v.02l.3 2.08c0 .11.06.2.13.28l.23.23c.07.07.17.12.28.13l2.08.3h.02c.17.01.34-.05.46-.17l.18-.18a.61.61 0 0 0 .18-.46l-.06-.93.94.06c.17.01.34-.05.46-.18l.18-.18a.61.61 0 0 0 .18-.46v-.22l10.16-10.17 10.17 10.17v.22c-.02.17.04.34.16.46l.18.18c.12.12.29.19.46.18l.94-.06-.06.93c-.01.17.05.34.18.46l.18.18c.12.12.29.19.46.18h.02l2.08-.3c.11 0 .2-.06.28-.13l.23-.23c.07-.07.12-.17.13-.28l.3-2.08v-.02a.575.575 0 0 0-.18-.46l-.18-.18a.61.61 0 0 0-.46-.18l-.93.06.06-.94a.575.575 0 0 0-.18-.46l-.18-.18a.61.61 0 0 0-.46-.18h-.22L28.16 25.36l8.7-8.7.69.69s.1.09.17.11c.16.08.35.11.52.07l.69-.15 1.94 1.94-.15.68c-.06.27.02.54.22.73L42.21 22c.19.19.47.27.73.22l1.91-.41c.15-.03.29-.11.4-.22l4.8-4.8c.11-.11.18-.25.22-.4l.41-1.91a.763.763 0 0 0-.22-.73ZM8.05 20.76l-.06.26c-.03.14-.17.24-.32.21l-1.28-.27a.273.273 0 0 1-.13-.07l-4.4-4.41c-.1-.1-.1-.27 0-.38l.19-.19c.1-.1.27-.1.38 0l4.24 4.24s.08.06.13.07l1.04.22c.14.03.24.17.21.32Zm5.59-16.44-9.32 9.32c-.1.1-.27.1-.38 0l-.19-.19c-.1-.1-.1-.27 0-.38l9.33-9.31c.1-.1.27-.1.38 0l.19.19c.1.1.1.27 0 .38Zm-1.7 35.81-.86-.12c-.09-.01-.12-.12-.06-.18l.37-.37s.11-.04.15 0l.49.49c.07.07.01.2-.09.18Zm.53-.5-.55-.55s-.04-.11 0-.15l.31-.31s.11-.04.15 0l.21.21s.03.04.03.07l.04.65c0 .1-.11.15-.18.08Zm27.66-.89-.12.86c-.01.09-.12.12-.18.06l-.37-.37s-.04-.11 0-.15l.49-.49c.07-.07.2-.01.18.09Zm-1.51-.43.21-.21s.04-.03.07-.03l.65-.04c.1 0 .15.11.08.18l-.55.55s-.11.04-.15 0l-.31-.31s-.04-.11 0-.15Zm-.85-.85.56-.56c.07-.07.19-.02.18.08l-.04.68s-.01.05-.03.07l-.2.2s-.11.04-.15 0l-.32-.32s-.04-.11 0-.15Zm-22.2-22.05c-.1-.1-.1-.27 0-.38l.19-.19c.1-.1.27-.1.38 0l8.45 8.45-.57.57-8.45-8.45Zm-1.88 23.1-.68-.04s-.05-.01-.07-.03l-.2-.2s-.04-.11 0-.15l.32-.32s.11-.04.15 0l.56.56c.07.07.02.19-.08.18Zm23.59-2.52c.1.1.1.27 0 .38l-.19.19c-.1.1-.27.1-.38 0l-9.89-9.89.57-.57 9.89 9.89Zm-1.44-19.86L14.7 37.28c-.1.1-.27.1-.38 0l-.19-.19c-.1-.1-.1-.27 0-.38l21.15-21.14c.1-.1.27-.1.38 0l.19.19c.1.1.1.27 0 .38Zm1.21-11.81c-.1-.1-.1-.27 0-.38l.19-.19c.1-.1.27-.1.38 0l9.32 9.32c.1.1.1.27 0 .38l-.19.19c-.1.1-.27.1-.38 0l-9.32-9.32Zm11.78 12.16-4.41 4.41s-.08.06-.13.07l-1.28.27a.271.271 0 0 1-.32-.21l-.06-.26c-.03-.14.06-.29.21-.32l1.04-.22c.05-.01.1-.04.13-.07l4.24-4.24c.1-.1.27-.1.38 0l.19.19c.1.1.1.27 0 .38Z"/><path d="m22.82 18.88.75.75 1.77-1.77 1.78 1.78.75-.76-2.53-2.52-2.52 2.52zM27.87 31.81l-.75-.75-1.78 1.77-1.77-1.77-.75.75 2.52 2.53 2.53-2.53z"/><path d="m25.91 34.9-.57.57-.56-.57-2.53-2.52-.75.75 2.53 2.53 1.31 1.32 1.32-1.32 2.53-2.53-.75-.75-2.53 2.52zM29.19 17.56l-3.85-3.84-3.84 3.84.75.76 3.09-3.1 3.1 3.1.75-.76zM38.06 23.92a1.54 1.54 0 1 0-1.45-2.07h-3.82l-1.07 1.07h4.89c.22.59.78 1.01 1.45 1.01Zm0-2.29c.41 0 .74.33.74.74s-.33.74-.74.74-.74-.33-.74-.74.33-.74.74-.74ZM36.61 27.78h-4.89l1.07 1.07h3.82a1.543 1.543 0 0 0 2.99-.53c0-.85-.69-1.54-1.54-1.54-.66 0-1.23.42-1.45 1.01Zm2.19.53c0 .41-.33.74-.74.74s-.74-.33-.74-.74.33-.74.74-.74.74.33.74.74Z"/><path d="M40.03 23.8c-.66 0-1.23.42-1.45 1.01h-8.77l-.53.53.53.53h8.77a1.543 1.543 0 0 0 2.99-.53c0-.85-.69-1.54-1.54-1.54Zm0 2.29c-.41 0-.74-.33-.74-.74s.33-.74.74-.74.74.33.74.74-.33.74-.74.74ZM14.08 22.91h4.89l-1.07-1.07h-3.82a1.543 1.543 0 0 0-2.99.53c0 .85.69 1.54 1.54 1.54.66 0 1.23-.42 1.45-1.01Zm-2.19-.53c0-.41.33-.74.74-.74s.74.33.74.74-.33.74-.74.74-.74-.33-.74-.74ZM12.64 26.77a1.54 1.54 0 1 0 1.45 2.07h3.82l1.07-1.07h-4.89c-.22-.59-.78-1.01-1.45-1.01Zm0 2.29c-.41 0-.74-.33-.74-.74s.33-.74.74-.74.74.33.74.74-.33.74-.74.74Z"/><path d="M12.11 25.88h8.77l.53-.53-.53-.53h-8.77a1.543 1.543 0 0 0-2.99.53c0 .85.69 1.54 1.54 1.54.66 0 1.23-.42 1.45-1.01Zm-2.19-.53c0-.41.33-.74.74-.74s.74.33.74.74-.33.74-.74.74-.74-.33-.74-.74Z"/></g></svg>