<?xml version="1.0" encoding="UTF-8"?><svg id="a" xmlns="http://www.w3.org/2000/svg" width="222.82" height="19.62" viewBox="0 0 222.82 19.62"><path d="M6.47,19.4H0V.27H5.01c1.58,0,2.81,.21,3.7,.64,.89,.42,1.56,1.01,2.03,1.75,.46,.74,.7,1.6,.7,2.58,0,1.88-.97,3.23-2.92,4.04,1.4,.27,2.51,.84,3.33,1.73,.83,.88,1.24,1.94,1.24,3.17,0,.98-.25,1.85-.75,2.62s-1.24,1.39-2.21,1.88c-.97,.48-2.19,.73-3.65,.73ZM5.09,2.71H2.74v5.75h1.82c1.46,0,2.5-.28,3.11-.83s.92-1.28,.92-2.16c0-1.83-1.17-2.75-3.5-2.75Zm.21,8.19H2.74v6.06h2.7c1.5,0,2.51-.12,3.05-.35,.53-.23,.96-.6,1.29-1.09,.32-.49,.49-1.02,.49-1.59s-.17-1.12-.51-1.6c-.34-.48-.83-.84-1.46-1.08s-1.62-.36-2.98-.36Z" fill="#040000"/><path d="M15.22,.27h2.74V16.91h8.61v2.49H15.22V.27Z" fill="#040000"/><path d="M36.83,0c2.96,0,5.42,.94,7.38,2.81,1.97,1.87,2.95,4.22,2.95,7.04s-.99,5.15-2.98,7-4.48,2.77-7.5,2.77-5.28-.92-7.2-2.77-2.88-4.16-2.88-6.95,.97-5.22,2.9-7.09c1.93-1.87,4.38-2.81,7.33-2.81Zm.11,2.6c-2.19,0-3.99,.68-5.39,2.05-1.41,1.37-2.11,3.12-2.11,5.24s.71,3.78,2.12,5.15c1.41,1.37,3.18,2.05,5.31,2.05s3.91-.7,5.34-2.09c1.43-1.4,2.14-3.13,2.14-5.22s-.71-3.73-2.14-5.11c-1.43-1.38-3.18-2.07-5.26-2.07Z" fill="#040000"/><path d="M66.45,14.96v3.01c-2.01,1.1-4.33,1.64-6.95,1.64-2.13,0-3.95-.43-5.43-1.29-1.49-.86-2.67-2.04-3.53-3.55s-1.3-3.13-1.3-4.89c0-2.78,.99-5.12,2.98-7.02C54.19,.98,56.64,.03,59.55,.03c2.01,0,4.24,.52,6.69,1.57v2.94c-2.24-1.28-4.42-1.92-6.56-1.92s-4.01,.69-5.46,2.07c-1.45,1.38-2.17,3.11-2.17,5.19s.71,3.82,2.14,5.17,3.24,2.03,5.46,2.03,4.58-.71,6.79-2.14Z" fill="#040000"/><path d="M80.07,.27h3.42l-8.29,9.08,10.33,10.05h-3.74l-9.77-9.45v9.45h-2.74V.27h2.74V9.02L80.07,.27Z" fill="#040000"/><path d="M91.99,11.38l-2.08-1.26c-1.31-.8-2.23-1.58-2.79-2.35-.55-.77-.83-1.66-.83-2.66,0-1.51,.52-2.73,1.57-3.67,1.04-.94,2.4-1.41,4.07-1.41s3.06,.45,4.39,1.34v3.11c-1.38-1.33-2.86-1.99-4.45-1.99-.89,0-1.63,.21-2.2,.62-.58,.41-.86,.94-.86,1.59,0,.57,.21,1.11,.63,1.61,.42,.5,1.1,1.03,2.04,1.58l2.09,1.24c2.33,1.39,3.5,3.17,3.5,5.32,0,1.53-.51,2.78-1.54,3.74-1.03,.96-2.36,1.44-4,1.44-1.89,0-3.61-.58-5.16-1.74v-3.48c1.48,1.87,3.19,2.81,5.13,2.81,.86,0,1.57-.24,2.14-.72,.57-.48,.86-1.08,.86-1.79,0-1.16-.84-2.27-2.52-3.31Z" fill="#040000"/><path d="M114.26,.27h2.56V19.4h-2.75V4.52l-5.88,7.39h-.51l-5.95-7.39v14.88h-2.74V.27h2.59l6.35,7.85L114.26,.27Z" fill="#040000"/><path d="M119.85,.27h2.74V19.4h-2.74V.27Z" fill="#040000"/><path d="M125.37,.25h15.97V2.68h-6.67V19.4h-2.75V2.68h-6.56V.25Z" fill="#040000"/><path d="M157.58,.27h2.74V19.4h-2.74V11.07h-10.75v8.32h-2.74V.27h2.74V8.54h10.75V.27Z" fill="#040000"/><path d="M178.34,19.4l-2.23-2.61c-.19,.19-.52,.47-.99,.84l-.03,.03c-.65,.54-1.45,1-2.41,1.39-.95,.38-1.85,.58-2.69,.58-1.32,0-2.45-.43-3.37-1.29s-1.38-1.91-1.38-3.16c0-.89,.23-1.7,.68-2.42,.45-.72,1.19-1.46,2.21-2.2l.04-.04c.6-.45,1.12-.79,1.56-1.03-1.44-1.54-2.16-3.02-2.16-4.44,0-1.3,.44-2.36,1.33-3.18,.88-.81,2.03-1.22,3.45-1.22s2.53,.4,3.42,1.19,1.34,1.81,1.34,3.04c0,1.67-1.12,3.3-3.35,4.88l-.19,.15,2.69,3.07c.79-.86,1.47-1.89,2.06-3.08h2.74c-.66,1.7-1.7,3.37-3.11,5.02l3.88,4.48h-3.48Zm-4.53-3.96l.62-.56-3.11-3.59-1.21,.85c-1.42,.96-2.14,1.93-2.14,2.92,0,.54,.23,1,.7,1.38,.47,.38,1.03,.58,1.68,.58,.51,0,1.09-.15,1.73-.44s1.22-.67,1.72-1.14Zm-1.78-7.38l1.05-.74c.97-.69,1.46-1.48,1.46-2.39,0-.56-.2-1.02-.61-1.4-.41-.38-.92-.56-1.54-.56s-1.1,.17-1.49,.52-.59,.78-.59,1.3,.15,1.05,.46,1.64c.31,.59,.73,1.13,1.26,1.63Z" fill="#040000"/><path d="M202.48,14.96v3.01c-2.01,1.1-4.33,1.64-6.95,1.64-2.13,0-3.95-.43-5.43-1.29-1.49-.86-2.67-2.04-3.53-3.55s-1.3-3.13-1.3-4.89c0-2.78,.99-5.12,2.98-7.02,1.99-1.9,4.43-2.85,7.34-2.85,2.01,0,4.24,.52,6.69,1.57v2.94c-2.24-1.28-4.42-1.92-6.56-1.92s-4.01,.69-5.46,2.07c-1.45,1.38-2.17,3.11-2.17,5.19s.71,3.82,2.14,5.17,3.24,2.03,5.46,2.03,4.58-.71,6.79-2.14Z" fill="#040000"/><path d="M211.53,6.78c1.92,0,3.51,.62,4.78,1.86,1.27,1.24,1.9,2.79,1.9,4.66s-.64,3.32-1.93,4.52c-1.29,1.2-2.91,1.8-4.86,1.8s-3.47-.61-4.74-1.83c-1.27-1.22-1.9-2.74-1.9-4.57s.64-3.38,1.92-4.61c1.28-1.23,2.89-1.84,4.83-1.84Zm-.14,2.25c-1.2,0-2.18,.39-2.94,1.18-.77,.78-1.15,1.78-1.15,3s.39,2.19,1.18,2.95c.78,.76,1.79,1.14,3.03,1.14s2.22-.38,3-1.16,1.17-1.76,1.17-2.96-.41-2.19-1.22-2.97c-.81-.79-1.83-1.18-3.07-1.18Z" fill="#040000"/><path d="M221.14,16.34c.46,0,.86,.16,1.19,.48,.33,.32,.49,.71,.49,1.18s-.16,.84-.49,1.15c-.32,.31-.72,.46-1.2,.46s-.86-.16-1.18-.46c-.32-.31-.48-.69-.48-1.15s.16-.86,.48-1.18,.71-.48,1.18-.48Z" fill="#040000"/></svg>